G04*
G04 #@! TF.GenerationSoftware,Altium Limited,Altium Designer,21.6.1 (37)*
G04*
G04 Layer_Color=65535*
%FSLAX25Y25*%
%MOIN*%
G70*
G04*
G04 #@! TF.SameCoordinates,3D0E8F73-5774-4D33-84BA-408F2C82BF8C*
G04*
G04*
G04 #@! TF.FilePolarity,Positive*
G04*
G01*
G75*
%ADD10C,0.00500*%
%ADD11C,0.00800*%
%ADD12C,0.01200*%
%ADD13C,0.00218*%
%ADD14C,0.00340*%
%ADD15C,0.00408*%
%ADD16C,0.00204*%
%ADD17C,0.00272*%
G36*
X106827Y182858D02*
X104827D01*
Y184858D01*
X106827D01*
Y182858D01*
D02*
G37*
G36*
X96827D02*
X94827D01*
Y184858D01*
X96827D01*
Y182858D01*
D02*
G37*
G36*
X86827D02*
X84827D01*
Y184858D01*
X86827D01*
Y182858D01*
D02*
G37*
G36*
X76827D02*
X74827D01*
Y184858D01*
X76827D01*
Y182858D01*
D02*
G37*
G36*
X188008Y166953D02*
X186008D01*
Y168953D01*
X188008D01*
Y166953D01*
D02*
G37*
G36*
X20449Y166717D02*
X18449D01*
Y168717D01*
X20449D01*
Y166717D01*
D02*
G37*
G36*
X10449D02*
X8449D01*
Y168717D01*
X10449D01*
Y166717D01*
D02*
G37*
G36*
X188008Y156953D02*
X186008D01*
Y158953D01*
X188008D01*
Y156953D01*
D02*
G37*
G36*
Y146953D02*
X186008D01*
Y148953D01*
X188008D01*
Y146953D01*
D02*
G37*
G36*
Y136953D02*
X186008D01*
Y138953D01*
X188008D01*
Y136953D01*
D02*
G37*
G36*
Y126953D02*
X186008D01*
Y128953D01*
X188008D01*
Y126953D01*
D02*
G37*
G36*
X20449Y101362D02*
X18449D01*
Y103362D01*
X20449D01*
Y101362D01*
D02*
G37*
G36*
X10449D02*
X8449D01*
Y103362D01*
X10449D01*
Y101362D01*
D02*
G37*
G36*
X188008Y97189D02*
X186008D01*
Y99189D01*
X188008D01*
Y97189D01*
D02*
G37*
G36*
Y87189D02*
X186008D01*
Y89189D01*
X188008D01*
Y87189D01*
D02*
G37*
G36*
X10449Y73016D02*
X8449D01*
Y75016D01*
X10449D01*
Y73016D01*
D02*
G37*
G36*
X188008Y47189D02*
X186008D01*
Y49189D01*
X188008D01*
Y47189D01*
D02*
G37*
G36*
X23197Y49895D02*
X23647Y47445D01*
X24097Y47345D01*
X24547Y47145D01*
X24997Y46945D01*
X25447Y46695D01*
X27497Y48145D01*
X27847Y47895D01*
X28247Y47545D01*
X28747Y47045D01*
X29147Y46545D01*
X27747Y44595D01*
X27797Y44495D01*
X28147Y43895D01*
X28397Y43345D01*
X28597Y42695D01*
X31047Y42245D01*
X31097Y41745D01*
X31147Y41195D01*
Y40745D01*
Y40045D01*
X28697Y39595D01*
X28497Y38795D01*
X28297Y38195D01*
X27947Y37595D01*
X29397Y35495D01*
X29047Y35045D01*
X28647Y34595D01*
X28297Y34245D01*
X27897Y33895D01*
X25897Y35295D01*
X25297Y34895D01*
X24697Y34645D01*
X23147Y38545D01*
X23147D01*
X23524Y38769D01*
X24142Y39388D01*
X24523Y40175D01*
X24625Y41043D01*
X24437Y41898D01*
X23980Y42643D01*
X23304Y43197D01*
X22483Y43500D01*
X22047Y43545D01*
X21596Y43514D01*
X20745Y43222D01*
X20045Y42654D01*
X19584Y41881D01*
X19416Y40996D01*
X19562Y40108D01*
X20004Y39324D01*
X20689Y38739D01*
X21097Y38545D01*
X21097D01*
X19697Y34545D01*
X18547Y35145D01*
X16497Y33745D01*
X16147Y34045D01*
X15697Y34445D01*
X15347Y34795D01*
X14947Y35245D01*
X16397Y37245D01*
X16047Y37845D01*
X15847Y38245D01*
X15697Y38745D01*
X15497Y39445D01*
X13047Y39845D01*
Y42045D01*
X15497Y42445D01*
X15647Y42795D01*
X15797Y43345D01*
X16097Y43995D01*
X16397Y44495D01*
X14997Y46545D01*
X15247Y46795D01*
X15647Y47245D01*
X16147Y47745D01*
X16597Y48095D01*
X18597Y46645D01*
X19297Y47045D01*
X19797Y47245D01*
X20547Y47495D01*
X20947Y49895D01*
X21447Y49945D01*
X22597D01*
X23197Y49895D01*
D02*
G37*
G36*
X188008Y37189D02*
X186008D01*
Y39189D01*
X188008D01*
Y37189D01*
D02*
G37*
G36*
X165409Y14354D02*
X163409D01*
Y16354D01*
X165409D01*
Y14354D01*
D02*
G37*
G36*
X155409D02*
X153409D01*
Y16354D01*
X155409D01*
Y14354D01*
D02*
G37*
G36*
X145409D02*
X143409D01*
Y16354D01*
X145409D01*
Y14354D01*
D02*
G37*
G36*
X135409D02*
X133409D01*
Y16354D01*
X135409D01*
Y14354D01*
D02*
G37*
G36*
X125409D02*
X123409D01*
Y16354D01*
X125409D01*
Y14354D01*
D02*
G37*
D10*
X30014Y144094D02*
X29574Y144856D01*
X28694D01*
X28254Y144094D01*
X28694Y143332D01*
X29574D01*
X30014Y144094D01*
X152746Y163110D02*
X153630Y163476D01*
X153996Y164360D01*
X148996D02*
X149362Y163476D01*
X150246Y163110D01*
X128996Y164360D02*
X129362Y163476D01*
X130246Y163110D01*
X132746D02*
X133630Y163476D01*
X133996Y164360D01*
X153439Y155239D02*
X153996Y156279D01*
X128996D02*
X129553Y155239D01*
X36220Y135433D02*
X55118D01*
Y190157D01*
X36220D02*
X55118D01*
X36220Y135433D02*
Y190157D01*
X141496Y148110D02*
Y153110D01*
X143996Y148110D02*
Y153110D01*
X146496Y148110D02*
Y153110D01*
X138996Y148110D02*
Y153110D01*
X136496Y148110D02*
Y153110D01*
X148996Y148110D02*
Y153110D01*
Y148110D02*
X153996D01*
Y153110D01*
X133996Y148110D02*
Y153110D01*
X128996Y148110D02*
X133996D01*
X128996D02*
Y153110D01*
X121496Y170610D02*
X126496D01*
X153996Y164360D02*
Y170610D01*
X150246Y163110D02*
X152746D01*
X148996Y164360D02*
Y170610D01*
X128996Y164360D02*
Y170610D01*
X130246Y163110D02*
X132746D01*
X133996Y164360D02*
Y170610D01*
X148996D02*
X153996D01*
X128996D02*
X133996D01*
X146496Y153110D02*
Y158110D01*
X153996D01*
Y156279D02*
Y158110D01*
X150246Y153110D02*
X153439Y155239D01*
X136496Y153110D02*
Y158110D01*
X128996D02*
X136496D01*
X128996Y156279D02*
Y158110D01*
X129553Y155239D02*
X132746Y153110D01*
X121496Y165610D02*
X126496D01*
X121496D02*
Y170610D01*
X156496D02*
X161496D01*
X156496Y165610D02*
X161496D01*
Y170610D01*
D11*
X110827Y181358D02*
Y186358D01*
X73327Y178858D02*
X78327D01*
X70827Y181358D02*
X73327Y178858D01*
X70827Y186358D02*
X73327Y188858D01*
X70827Y181358D02*
Y186358D01*
X80827Y181358D02*
X83327Y178858D01*
X88327D01*
X90827Y181358D01*
X88327Y188858D02*
X90827Y186358D01*
X83327Y188858D02*
X88327D01*
X80827Y186358D02*
X83327Y188858D01*
X78327Y178858D02*
X80827Y181358D01*
X78327Y188858D02*
X80827Y186358D01*
X73327Y188858D02*
X78327D01*
X103327Y178858D02*
X108327D01*
X100827Y181358D02*
X103327Y178858D01*
X100827Y186358D02*
X103327Y188858D01*
X90827Y181358D02*
X93327Y178858D01*
X98327D01*
X100827Y181358D01*
X98327Y188858D02*
X100827Y186358D01*
X93327Y188858D02*
X98327D01*
X90827Y186358D02*
X93327Y188858D01*
X108327Y178858D02*
X110827Y181358D01*
X108327Y188858D02*
X110827Y186358D01*
X103327Y188858D02*
X108327D01*
X151909Y20354D02*
X156909D01*
X159409Y17854D01*
X156909Y10354D02*
X159409Y12854D01*
Y17854D02*
X161909Y20354D01*
X166909D01*
X169409Y17854D01*
X166909Y10354D02*
X169409Y12854D01*
X161909Y10354D02*
X166909D01*
X159409Y12854D02*
X161909Y10354D01*
X139409Y17854D02*
X141909Y20354D01*
X146909D01*
X149409Y17854D01*
X146909Y10354D02*
X149409Y12854D01*
X141909Y10354D02*
X146909D01*
X139409Y12854D02*
X141909Y10354D01*
X149409Y17854D02*
X151909Y20354D01*
X149409Y12854D02*
X151909Y10354D01*
X156909D01*
X121909Y20354D02*
X126909D01*
X129409Y17854D01*
X126909Y10354D02*
X129409Y12854D01*
Y17854D02*
X131909Y20354D01*
X136909D01*
X139409Y17854D01*
X136909Y10354D02*
X139409Y12854D01*
X131909Y10354D02*
X136909D01*
X129409Y12854D02*
X131909Y10354D01*
X119409Y12854D02*
Y17854D01*
X121909Y20354D01*
X119409Y12854D02*
X121909Y10354D01*
X126909D01*
X169409Y12854D02*
Y17854D01*
X11949Y79016D02*
X14449Y76516D01*
X6949Y79016D02*
X11949D01*
X4449Y76516D02*
X6949Y79016D01*
X4449Y71516D02*
Y76516D01*
Y71516D02*
X6949Y69016D01*
X11949D01*
X14449Y71516D01*
Y76516D01*
X6949Y107362D02*
X11949D01*
X14449Y104862D01*
X11949Y97362D02*
X14449Y99862D01*
Y104862D02*
X16949Y107362D01*
X21949D01*
X24449Y104862D01*
X21949Y97362D02*
X24449Y99862D01*
X16949Y97362D02*
X21949D01*
X14449Y99862D02*
X16949Y97362D01*
X4449Y99862D02*
Y104862D01*
X6949Y107362D01*
X4449Y99862D02*
X6949Y97362D01*
X11949D01*
X24449Y99862D02*
Y104862D01*
X6949Y172717D02*
X11949D01*
X14449Y170217D01*
X11949Y162717D02*
X14449Y165217D01*
Y170217D02*
X16949Y172717D01*
X21949D01*
X24449Y170217D01*
X21949Y162717D02*
X24449Y165217D01*
X16949Y162717D02*
X21949D01*
X14449Y165217D02*
X16949Y162717D01*
X4449Y165217D02*
Y170217D01*
X6949Y172717D01*
X4449Y165217D02*
X6949Y162717D01*
X11949D01*
X24449Y165217D02*
Y170217D01*
X182008Y35689D02*
Y40689D01*
X184508Y43189D01*
X189508D02*
X192008Y40689D01*
X182008Y45689D02*
X184508Y43189D01*
X182008Y45689D02*
Y50689D01*
X184508Y53189D01*
X189508D02*
X192008Y50689D01*
Y45689D02*
Y50689D01*
X189508Y43189D02*
X192008Y45689D01*
X184508Y33189D02*
X189508D01*
X182008Y35689D02*
X184508Y33189D01*
X189508D02*
X192008Y35689D01*
Y40689D01*
X184508Y53189D02*
X189508D01*
X182008Y85689D02*
Y90689D01*
X184508Y93189D01*
X189508D02*
X192008Y90689D01*
X182008Y95689D02*
X184508Y93189D01*
X182008Y95689D02*
Y100689D01*
X184508Y103189D01*
X189508D02*
X192008Y100689D01*
Y95689D02*
Y100689D01*
X189508Y93189D02*
X192008Y95689D01*
X184508Y83189D02*
X189508D01*
X182008Y85689D02*
X184508Y83189D01*
X189508D02*
X192008Y85689D01*
Y90689D01*
X184508Y103189D02*
X189508D01*
X182008Y155453D02*
Y160453D01*
X184508Y162953D01*
X189508D02*
X192008Y160453D01*
X182008Y165453D02*
X184508Y162953D01*
X182008Y165453D02*
Y170453D01*
X184508Y172953D01*
X189508D02*
X192008Y170453D01*
Y165453D02*
Y170453D01*
X189508Y162953D02*
X192008Y165453D01*
X182008Y145453D02*
X184508Y142953D01*
X182008Y145453D02*
Y150453D01*
X184508Y152953D01*
X189508D02*
X192008Y150453D01*
Y145453D02*
Y150453D01*
X189508Y142953D02*
X192008Y145453D01*
X182008Y155453D02*
X184508Y152953D01*
X189508D02*
X192008Y155453D01*
Y160453D01*
X182008Y125453D02*
Y130453D01*
X184508Y132953D01*
X189508D02*
X192008Y130453D01*
X182008Y135453D02*
X184508Y132953D01*
X182008Y135453D02*
Y140453D01*
X184508Y142953D01*
X189508D02*
X192008Y140453D01*
Y135453D02*
Y140453D01*
X189508Y132953D02*
X192008Y135453D01*
X184508Y122953D02*
X189508D01*
X182008Y125453D02*
X184508Y122953D01*
X189508D02*
X192008Y125453D01*
Y130453D01*
X184508Y172953D02*
X189508D01*
D12*
X176496Y33110D02*
Y173110D01*
X106496Y33110D02*
Y173110D01*
Y33110D02*
X176496D01*
X156496Y173110D02*
X176496D01*
X106496D02*
X126496D01*
Y175610D02*
X156496D01*
X126496Y153110D02*
X128996D01*
X132746D01*
X133996D01*
X136496D01*
X138996D01*
X141496D01*
X143996D01*
X146496D01*
X148996D01*
X150246D01*
X153996D01*
X156496D01*
X126496D02*
Y175610D01*
X156496Y153110D02*
Y175610D01*
D13*
X103150Y193270D02*
Y191457D01*
X104056Y190551D01*
X104962Y191457D01*
Y193270D01*
X107682Y192817D02*
X107228Y193270D01*
X106322D01*
X105869Y192817D01*
Y191004D01*
X106322Y190551D01*
X107228D01*
X107682Y191004D01*
X108588Y192817D02*
X109041Y193270D01*
X109947D01*
X110401Y192817D01*
Y192364D01*
X109947Y191911D01*
X109494D01*
X109947D01*
X110401Y191457D01*
Y191004D01*
X109947Y190551D01*
X109041D01*
X108588Y191004D01*
X94919Y158268D02*
X97638D01*
Y160081D01*
X94919Y162800D02*
Y160987D01*
X97638D01*
Y162800D01*
X96278Y160987D02*
Y161893D01*
X94919Y163706D02*
X97638D01*
Y165066D01*
X97185Y165519D01*
X95372D01*
X94919Y165066D01*
Y163706D01*
X97638Y166425D02*
X94919D01*
X95825Y167331D01*
X94919Y168238D01*
X97638D01*
X94919Y169144D02*
X97185D01*
X97638Y169597D01*
Y170504D01*
X97185Y170957D01*
X94919D01*
Y171863D02*
Y173676D01*
Y172770D01*
X97638D01*
X94919Y176395D02*
Y174582D01*
X97638D01*
Y176395D01*
X96278Y174582D02*
Y175489D01*
X84682Y160630D02*
X87402D01*
Y162443D01*
X84682Y165162D02*
Y163349D01*
X87402D01*
Y165162D01*
X86042Y163349D02*
Y164255D01*
X84682Y166068D02*
X87402D01*
Y167428D01*
X86948Y167881D01*
X85136D01*
X84682Y167428D01*
Y166068D01*
X87402Y168787D02*
X84682D01*
Y170147D01*
X85136Y170600D01*
X86042D01*
X86495Y170147D01*
Y168787D01*
X84682Y171506D02*
X87402D01*
X86495Y172413D01*
X87402Y173319D01*
X84682D01*
X87402Y174225D02*
X84682D01*
Y175585D01*
X85136Y176038D01*
X86042D01*
X86495Y175585D01*
Y174225D01*
Y175132D02*
X87402Y176038D01*
X74840Y150000D02*
X77559D01*
Y151813D01*
X74840Y154532D02*
Y152719D01*
X77559D01*
Y154532D01*
X76200Y152719D02*
Y153626D01*
X74840Y155438D02*
X77559D01*
Y156798D01*
X77106Y157251D01*
X75293D01*
X74840Y156798D01*
Y155438D01*
X75293Y159970D02*
X74840Y159517D01*
Y158610D01*
X75293Y158157D01*
X77106D01*
X77559Y158610D01*
Y159517D01*
X77106Y159970D01*
X77559Y160877D02*
X74840D01*
Y162236D01*
X75293Y162689D01*
X76200D01*
X76653Y162236D01*
Y160877D01*
X75293Y165408D02*
X74840Y164955D01*
Y164049D01*
X75293Y163596D01*
X75746D01*
X76200Y164049D01*
Y164955D01*
X76653Y165408D01*
X77106D01*
X77559Y164955D01*
Y164049D01*
X77106Y163596D01*
X74840Y166315D02*
X77559D01*
Y168128D01*
X74840Y170393D02*
Y169487D01*
X75293Y169034D01*
X77106D01*
X77559Y169487D01*
Y170393D01*
X77106Y170847D01*
X75293D01*
X74840Y170393D01*
X75293Y173566D02*
X74840Y173112D01*
Y172206D01*
X75293Y171753D01*
X77106D01*
X77559Y172206D01*
Y173112D01*
X77106Y173566D01*
X74840Y174472D02*
X77559D01*
X76653D01*
X74840Y176285D01*
X76200Y174925D01*
X77559Y176285D01*
X181102Y35827D02*
Y36733D01*
Y36280D01*
X178383D01*
X178836Y35827D01*
Y38093D02*
X178383Y38546D01*
Y39452D01*
X178836Y39906D01*
X179289D01*
X179742Y39452D01*
Y38999D01*
Y39452D01*
X180196Y39906D01*
X180649D01*
X181102Y39452D01*
Y38546D01*
X180649Y38093D01*
X181102Y75984D02*
Y76890D01*
Y76437D01*
X178383D01*
X178836Y75984D01*
X178383Y78250D02*
Y80063D01*
X178836D01*
X180649Y78250D01*
X181102D01*
Y85433D02*
Y86339D01*
Y85886D01*
X178383D01*
X178836Y85433D01*
Y87699D02*
X178383Y88152D01*
Y89059D01*
X178836Y89512D01*
X179289D01*
X179742Y89059D01*
X180196Y89512D01*
X180649D01*
X181102Y89059D01*
Y88152D01*
X180649Y87699D01*
X180196D01*
X179742Y88152D01*
X179289Y87699D01*
X178836D01*
X179742Y88152D02*
Y89059D01*
X181102Y96063D02*
Y96969D01*
Y96516D01*
X178383D01*
X178836Y96063D01*
X180649Y98329D02*
X181102Y98782D01*
Y99689D01*
X180649Y100142D01*
X178836D01*
X178383Y99689D01*
Y98782D01*
X178836Y98329D01*
X179289D01*
X179742Y98782D01*
Y100142D01*
X181102Y45669D02*
Y46575D01*
Y46122D01*
X178383D01*
X178836Y45669D01*
X181102Y49294D02*
X178383D01*
X179742Y47935D01*
Y49748D01*
X181102Y65354D02*
Y66260D01*
Y65807D01*
X178383D01*
X178836Y65354D01*
X178383Y69433D02*
X178836Y68526D01*
X179742Y67620D01*
X180649D01*
X181102Y68073D01*
Y68980D01*
X180649Y69433D01*
X180196D01*
X179742Y68980D01*
Y67620D01*
X181102Y55906D02*
Y56812D01*
Y56359D01*
X178383D01*
X178836Y55906D01*
X178383Y59985D02*
Y58172D01*
X179742D01*
X179289Y59078D01*
Y59531D01*
X179742Y59985D01*
X180649D01*
X181102Y59531D01*
Y58625D01*
X180649Y58172D01*
X151575Y7384D02*
X152028Y7837D01*
X152935D01*
X153388Y7384D01*
Y6931D01*
X152935Y6478D01*
X152481D01*
X152935D01*
X153388Y6024D01*
Y5571D01*
X152935Y5118D01*
X152028D01*
X151575Y5571D01*
X154294Y7384D02*
X154747Y7837D01*
X155654D01*
X156107Y7384D01*
Y5571D01*
X155654Y5118D01*
X154747D01*
X154294Y5571D01*
Y7384D01*
X164018Y5118D02*
X162205D01*
X164018Y6931D01*
Y7384D01*
X163565Y7837D01*
X162658D01*
X162205Y7384D01*
X164924Y7837D02*
X166737D01*
Y7384D01*
X164924Y5571D01*
Y5118D01*
X178836Y156144D02*
X178383Y155691D01*
Y154784D01*
X178836Y154331D01*
X180649D01*
X181102Y154784D01*
Y155691D01*
X180649Y156144D01*
X179742D01*
Y155237D01*
X181102Y157050D02*
X178383D01*
X181102Y158863D01*
X178383D01*
Y159769D02*
X181102D01*
Y161129D01*
X180649Y161582D01*
X178836D01*
X178383Y161129D01*
Y159769D01*
Y167561D02*
Y165748D01*
X179742D01*
X179289Y166654D01*
Y167108D01*
X179742Y167561D01*
X180649D01*
X181102Y167108D01*
Y166201D01*
X180649Y165748D01*
X178383Y168467D02*
X180196D01*
X181102Y169374D01*
X180196Y170280D01*
X178383D01*
X16535Y95632D02*
Y92913D01*
X17895D01*
X18348Y93366D01*
Y95179D01*
X17895Y95632D01*
X16535D01*
X19254Y92913D02*
Y94726D01*
X20161Y95632D01*
X21067Y94726D01*
Y92913D01*
Y94273D01*
X19254D01*
X21973Y95632D02*
X23786D01*
X22880D01*
Y92913D01*
X24692D02*
Y94726D01*
X25599Y95632D01*
X26505Y94726D01*
Y92913D01*
Y94273D01*
X24692D01*
X102005Y87008D02*
Y88821D01*
X102458D01*
X104271Y87008D01*
X104724D01*
X102458Y77165D02*
X102005Y77618D01*
Y78525D01*
X102458Y78978D01*
X102911D01*
X103364Y78525D01*
X103818Y78978D01*
X104271D01*
X104724Y78525D01*
Y77618D01*
X104271Y77165D01*
X103818D01*
X103364Y77618D01*
X102911Y77165D01*
X102458D01*
X103364Y77618D02*
Y78525D01*
X102005Y99057D02*
X102458Y98150D01*
X103364Y97244D01*
X104271D01*
X104724Y97697D01*
Y98604D01*
X104271Y99057D01*
X103818D01*
X103364Y98604D01*
Y97244D01*
X183071Y31459D02*
Y28740D01*
X184884D01*
X187603Y31459D02*
X185790D01*
Y28740D01*
X187603D01*
X185790Y30100D02*
X186697D01*
X188509Y31459D02*
Y28740D01*
X189869D01*
X190322Y29193D01*
Y31006D01*
X189869Y31459D01*
X188509D01*
X185671Y57443D02*
X183858D01*
Y56084D01*
X184764D01*
X183858D01*
Y54724D01*
X186577D02*
Y56537D01*
X187937D01*
X188390Y56084D01*
Y54724D01*
X189296Y56084D02*
X191109D01*
X190203Y56990D02*
Y55177D01*
X183071Y81459D02*
Y78740D01*
X184431D01*
X184884Y79193D01*
Y81006D01*
X184431Y81459D01*
X183071D01*
X185790Y78740D02*
Y80553D01*
X186697Y81459D01*
X187603Y80553D01*
Y78740D01*
Y80100D01*
X185790D01*
X188509Y81459D02*
X190322D01*
X189416D01*
Y78740D01*
X191228D02*
Y80553D01*
X192135Y81459D01*
X193041Y80553D01*
Y78740D01*
Y80100D01*
X191228D01*
X184884Y106597D02*
X184431Y107050D01*
X183524D01*
X183071Y106597D01*
Y104784D01*
X183524Y104331D01*
X184431D01*
X184884Y104784D01*
X185790Y107050D02*
Y104331D01*
X187603D01*
X188509Y107050D02*
Y104331D01*
Y105237D01*
X190322Y107050D01*
X188962Y105691D01*
X190322Y104331D01*
X192163Y118504D02*
Y120317D01*
Y119410D01*
X194882D01*
Y121223D02*
X192163D01*
Y122583D01*
X192616Y123036D01*
X193522D01*
X193976Y122583D01*
Y121223D01*
X194882Y123942D02*
X192163D01*
Y125302D01*
X192616Y125755D01*
X193522D01*
X193976Y125302D01*
Y123942D01*
Y124849D02*
X194882Y125755D01*
X192616Y128474D02*
X192163Y128021D01*
Y127115D01*
X192616Y126661D01*
X193069D01*
X193522Y127115D01*
Y128021D01*
X193976Y128474D01*
X194429D01*
X194882Y128021D01*
Y127115D01*
X194429Y126661D01*
X192163Y129381D02*
Y131193D01*
Y130287D01*
X194882D01*
X192163Y136852D02*
Y135039D01*
X193522D01*
Y135945D01*
Y135039D01*
X194882D01*
Y137758D02*
X193069D01*
Y139118D01*
X193522Y139571D01*
X194882D01*
X193522Y140477D02*
Y142290D01*
X6931Y95179D02*
X6478Y95632D01*
X5571D01*
X5118Y95179D01*
Y93366D01*
X5571Y92913D01*
X6478D01*
X6931Y93366D01*
X7837Y95632D02*
Y92913D01*
X9650D01*
X10556Y95632D02*
Y92913D01*
Y93819D01*
X12369Y95632D01*
X11009Y94273D01*
X12369Y92913D01*
X3937Y64567D02*
Y67286D01*
X5297D01*
X5750Y66833D01*
Y65927D01*
X5297Y65473D01*
X3937D01*
X6656Y67286D02*
Y64567D01*
X7563Y65473D01*
X8469Y64567D01*
Y67286D01*
X9375Y64567D02*
Y67286D01*
X10735D01*
X11188Y66833D01*
Y65927D01*
X10735Y65473D01*
X9375D01*
X10282D02*
X11188Y64567D01*
X16626Y66833D02*
X16173Y67286D01*
X15267D01*
X14814Y66833D01*
Y66380D01*
X15267Y65927D01*
X16173D01*
X16626Y65473D01*
Y65020D01*
X16173Y64567D01*
X15267D01*
X14814Y65020D01*
X17533Y67286D02*
Y64567D01*
X18439Y65473D01*
X19345Y64567D01*
Y67286D01*
X104331Y35827D02*
Y36733D01*
Y36280D01*
X101612D01*
X102065Y35827D01*
X104331Y39906D02*
Y38093D01*
X102518Y39906D01*
X102065D01*
X101612Y39452D01*
Y38546D01*
X102065Y38093D01*
X104724Y46063D02*
Y46969D01*
Y46516D01*
X102005D01*
X102458Y46063D01*
X104724Y48329D02*
Y49235D01*
Y48782D01*
X102005D01*
X102458Y48329D01*
X104724Y56299D02*
Y57205D01*
Y56752D01*
X102005D01*
X102458Y56299D01*
Y58565D02*
X102005Y59018D01*
Y59925D01*
X102458Y60378D01*
X104271D01*
X104724Y59925D01*
Y59018D01*
X104271Y58565D01*
X102458D01*
X104271Y67323D02*
X104724Y67776D01*
Y68683D01*
X104271Y69136D01*
X102458D01*
X102005Y68683D01*
Y67776D01*
X102458Y67323D01*
X102911D01*
X103364Y67776D01*
Y69136D01*
X121892Y6990D02*
X121439Y7443D01*
X120532D01*
X120079Y6990D01*
Y5177D01*
X120532Y4724D01*
X121439D01*
X121892Y5177D01*
Y6084D01*
X120985D01*
X122798Y4724D02*
Y7443D01*
X124611Y4724D01*
Y7443D01*
X125517D02*
Y4724D01*
X126877D01*
X127330Y5177D01*
Y6990D01*
X126877Y7443D01*
X125517D01*
X133309Y4724D02*
X131496D01*
X133309Y6537D01*
Y6990D01*
X132856Y7443D01*
X131949D01*
X131496Y6990D01*
X134215Y5177D02*
X134668Y4724D01*
X135575D01*
X136028Y5177D01*
Y6990D01*
X135575Y7443D01*
X134668D01*
X134215Y6990D01*
Y6537D01*
X134668Y6084D01*
X136028D01*
X143545Y5118D02*
X141732D01*
X143545Y6931D01*
Y7384D01*
X143092Y7837D01*
X142185D01*
X141732Y7384D01*
X144451D02*
X144904Y7837D01*
X145811D01*
X146264Y7384D01*
Y6931D01*
X145811Y6478D01*
X146264Y6024D01*
Y5571D01*
X145811Y5118D01*
X144904D01*
X144451Y5571D01*
Y6024D01*
X144904Y6478D01*
X144451Y6931D01*
Y7384D01*
X144904Y6478D02*
X145811D01*
X138821Y31006D02*
X138368Y31459D01*
X137461D01*
X137008Y31006D01*
Y29193D01*
X137461Y28740D01*
X138368D01*
X138821Y29193D01*
Y30100D01*
X137914D01*
X139727Y28740D02*
Y31459D01*
X141540Y28740D01*
Y31459D01*
X142446D02*
Y28740D01*
X143806D01*
X144259Y29193D01*
Y31006D01*
X143806Y31459D01*
X142446D01*
X147638Y28740D02*
Y31459D01*
X148998D01*
X149451Y31006D01*
Y30100D01*
X148998Y29646D01*
X147638D01*
X152170Y31006D02*
X151717Y31459D01*
X150810D01*
X150357Y31006D01*
Y29193D01*
X150810Y28740D01*
X151717D01*
X152170Y29193D01*
Y30100D01*
X151263D01*
X153076Y28740D02*
Y31459D01*
X153983Y30553D01*
X154889Y31459D01*
Y28740D01*
X102458Y165986D02*
X102005Y165533D01*
Y164626D01*
X102458Y164173D01*
X104271D01*
X104724Y164626D01*
Y165533D01*
X104271Y165986D01*
X103364D01*
Y165079D01*
X104724Y166892D02*
X102005D01*
X104724Y168705D01*
X102005D01*
Y169611D02*
X104724D01*
Y170971D01*
X104271Y171424D01*
X102458D01*
X102005Y170971D01*
Y169611D01*
X181102Y117955D02*
Y116142D01*
X179289Y117955D01*
X178836D01*
X178383Y117502D01*
Y116595D01*
X178836Y116142D01*
X181102Y118861D02*
Y119767D01*
Y119314D01*
X178383D01*
X178836Y118861D01*
X181102Y107325D02*
Y105512D01*
X179289Y107325D01*
X178836D01*
X178383Y106872D01*
Y105965D01*
X178836Y105512D01*
Y108231D02*
X178383Y108684D01*
Y109591D01*
X178836Y110044D01*
X180649D01*
X181102Y109591D01*
Y108684D01*
X180649Y108231D01*
X178836D01*
Y145669D02*
X178383Y146122D01*
Y147029D01*
X178836Y147482D01*
X179289D01*
X179742Y147029D01*
Y146575D01*
Y147029D01*
X180196Y147482D01*
X180649D01*
X181102Y147029D01*
Y146122D01*
X180649Y145669D01*
X178383Y148388D02*
X180196D01*
X181102Y149294D01*
X180196Y150201D01*
X178383D01*
X181102Y127404D02*
Y125591D01*
X179289Y127404D01*
X178836D01*
X178383Y126951D01*
Y126044D01*
X178836Y125591D01*
X181102Y130123D02*
Y128310D01*
X179289Y130123D01*
X178836D01*
X178383Y129670D01*
Y128763D01*
X178836Y128310D01*
X181102Y137640D02*
Y135827D01*
X179289Y137640D01*
X178836D01*
X178383Y137187D01*
Y136280D01*
X178836Y135827D01*
Y138546D02*
X178383Y138999D01*
Y139906D01*
X178836Y140359D01*
X179289D01*
X179742Y139906D01*
Y139453D01*
Y139906D01*
X180196Y140359D01*
X180649D01*
X181102Y139906D01*
Y138999D01*
X180649Y138546D01*
X104724Y118683D02*
X102005D01*
X103364Y117323D01*
Y119136D01*
X102005Y108900D02*
Y107087D01*
X103364D01*
X102911Y107993D01*
Y108447D01*
X103364Y108900D01*
X104271D01*
X104724Y108447D01*
Y107540D01*
X104271Y107087D01*
X102458Y127559D02*
X102005Y128012D01*
Y128919D01*
X102458Y129372D01*
X102911D01*
X103364Y128919D01*
Y128465D01*
Y128919D01*
X103818Y129372D01*
X104271D01*
X104724Y128919D01*
Y128012D01*
X104271Y127559D01*
X104724Y139215D02*
Y137402D01*
X102911Y139215D01*
X102458D01*
X102005Y138762D01*
Y137855D01*
X102458Y137402D01*
X104724Y147244D02*
Y148150D01*
Y147697D01*
X102005D01*
X102458Y147244D01*
Y157480D02*
X102005Y157933D01*
Y158840D01*
X102458Y159293D01*
X104271D01*
X104724Y158840D01*
Y157933D01*
X104271Y157480D01*
X102458D01*
D14*
X135745Y118110D02*
Y115278D01*
Y116694D01*
X131496D01*
X135745Y111029D02*
Y113861D01*
X131496D01*
Y111029D01*
X133620Y113861D02*
Y112445D01*
X135745Y106780D02*
Y109613D01*
X131496D01*
Y106780D01*
X133620Y109613D02*
Y108196D01*
X131496Y105364D02*
X135745D01*
X131496Y102532D01*
X135745D01*
X135037Y98283D02*
X135745Y98991D01*
Y100407D01*
X135037Y101116D01*
X134328D01*
X133620Y100407D01*
Y98991D01*
X132912Y98283D01*
X132204D01*
X131496Y98991D01*
Y100407D01*
X132204Y101116D01*
X135745Y96867D02*
X135037D01*
X133620Y95451D01*
X135037Y94034D01*
X135745D01*
X133620Y95451D02*
X131496D01*
X135037Y88370D02*
X135745Y87661D01*
Y86245D01*
X135037Y85537D01*
X134328D01*
X133620Y86245D01*
Y86953D01*
Y86245D01*
X132912Y85537D01*
X132204D01*
X131496Y86245D01*
Y87661D01*
X132204Y88370D01*
X131496Y84121D02*
X132204D01*
Y83413D01*
X131496D01*
Y84121D01*
Y77748D02*
Y80580D01*
X134328Y77748D01*
X135037D01*
X135745Y78456D01*
Y79872D01*
X135037Y80580D01*
X24409Y18816D02*
X27241Y14567D01*
Y18816D02*
X24409Y14567D01*
X31490D02*
X28658D01*
X31490Y17399D01*
Y18108D01*
X30782Y18816D01*
X29366D01*
X28658Y18108D01*
X35739Y14567D02*
X32906D01*
X35739Y17399D01*
Y18108D01*
X35031Y18816D01*
X33614D01*
X32906Y18108D01*
X37155D02*
X37863Y18816D01*
X39279D01*
X39987Y18108D01*
Y15275D01*
X39279Y14567D01*
X37863D01*
X37155Y15275D01*
Y18108D01*
X45652Y18816D02*
Y14567D01*
Y15983D01*
X48485Y18816D01*
X46360Y16691D01*
X48485Y14567D01*
X49901Y18816D02*
Y14567D01*
X52025D01*
X52733Y15275D01*
Y15983D01*
X52025Y16691D01*
X49901D01*
X52025D01*
X52733Y17399D01*
Y18108D01*
X52025Y18816D01*
X49901D01*
X61230Y18108D02*
X60522Y18816D01*
X59106D01*
X58398Y18108D01*
Y15275D01*
X59106Y14567D01*
X60522D01*
X61230Y15275D01*
X63355Y14567D02*
X64771D01*
X65479Y15275D01*
Y16691D01*
X64771Y17399D01*
X63355D01*
X62647Y16691D01*
Y15275D01*
X63355Y14567D01*
X66895D02*
Y17399D01*
X69020D01*
X69728Y16691D01*
Y14567D01*
X71852Y18108D02*
Y17399D01*
X71144D01*
X72560D01*
X71852D01*
Y15275D01*
X72560Y14567D01*
X74685Y17399D02*
Y14567D01*
Y15983D01*
X75393Y16691D01*
X76101Y17399D01*
X76809D01*
X79641Y14567D02*
X81057D01*
X81766Y15275D01*
Y16691D01*
X81057Y17399D01*
X79641D01*
X78933Y16691D01*
Y15275D01*
X79641Y14567D01*
X83182D02*
X84598D01*
X83890D01*
Y18816D01*
X83182D01*
X86722Y14567D02*
X88138D01*
X87430D01*
Y18816D01*
X86722D01*
X92387Y14567D02*
X90971D01*
X90263Y15275D01*
Y16691D01*
X90971Y17399D01*
X92387D01*
X93095Y16691D01*
Y15983D01*
X90263D01*
X94511Y17399D02*
Y14567D01*
Y15983D01*
X95219Y16691D01*
X95928Y17399D01*
X96636D01*
X24409Y9367D02*
Y6534D01*
X25825Y5118D01*
X27241Y6534D01*
Y9367D01*
X30782Y5118D02*
X29366D01*
X28658Y5826D01*
Y7242D01*
X29366Y7950D01*
X30782D01*
X31490Y7242D01*
Y6534D01*
X28658D01*
X32906Y7950D02*
Y5118D01*
Y6534D01*
X33614Y7242D01*
X34323Y7950D01*
X35031D01*
X37155Y5118D02*
X39279D01*
X39987Y5826D01*
X39279Y6534D01*
X37863D01*
X37155Y7242D01*
X37863Y7950D01*
X39987D01*
X41403Y5118D02*
X42820D01*
X42112D01*
Y7950D01*
X41403D01*
X45652Y5118D02*
X47068D01*
X47776Y5826D01*
Y7242D01*
X47068Y7950D01*
X45652D01*
X44944Y7242D01*
Y5826D01*
X45652Y5118D01*
X49193D02*
Y7950D01*
X51317D01*
X52025Y7242D01*
Y5118D01*
X57690D02*
X59106D01*
X58398D01*
Y9367D01*
X57690Y8659D01*
X61230Y5118D02*
Y5826D01*
X61939D01*
Y5118D01*
X61230D01*
X64771Y8659D02*
X65479Y9367D01*
X66895D01*
X67603Y8659D01*
Y5826D01*
X66895Y5118D01*
X65479D01*
X64771Y5826D01*
Y8659D01*
D15*
X5809Y109901D02*
X4449D01*
Y107862D01*
X5809D01*
X4449Y108882D02*
X5129D01*
X6488Y108202D02*
X6828Y107862D01*
X7508D01*
X7848Y108202D01*
Y108542D01*
X7508Y108882D01*
X6828D01*
X6488Y109222D01*
Y109561D01*
X6828Y109901D01*
X7508D01*
X7848Y109561D01*
X7168Y109901D02*
Y107862D01*
X8528Y108202D02*
X8868Y107862D01*
X9547D01*
X9887Y108202D01*
Y109561D01*
X9547Y109901D01*
X8868D01*
X8528Y109561D01*
Y109222D01*
X8868Y108882D01*
X9887D01*
D16*
X8693Y29528D02*
X9542D01*
X9967Y29952D01*
Y30802D01*
X9542Y31227D01*
X8693D01*
X8268Y30802D01*
Y29952D01*
X8693Y29528D01*
X10817Y28678D02*
Y31227D01*
X12092D01*
X12516Y30802D01*
Y29952D01*
X12092Y29528D01*
X10817D01*
X14641D02*
X13791D01*
X13366Y29952D01*
Y30802D01*
X13791Y31227D01*
X14641D01*
X15066Y30802D01*
Y30377D01*
X13366D01*
X15915Y29528D02*
Y31227D01*
X17190D01*
X17615Y30802D01*
Y29528D01*
X21014D02*
X22288D01*
X22713Y29952D01*
X22288Y30377D01*
X21439D01*
X21014Y30802D01*
X21439Y31227D01*
X22713D01*
X23988Y29528D02*
X24837D01*
X25262Y29952D01*
Y30802D01*
X24837Y31227D01*
X23988D01*
X23563Y30802D01*
Y29952D01*
X23988Y29528D01*
X26112Y31227D02*
Y29952D01*
X26537Y29528D01*
X27811D01*
Y31227D01*
X28661D02*
Y29528D01*
Y30377D01*
X29086Y30802D01*
X29511Y31227D01*
X29936D01*
X32910D02*
X31635D01*
X31210Y30802D01*
Y29952D01*
X31635Y29528D01*
X32910D01*
X35034D02*
X34184D01*
X33759Y29952D01*
Y30802D01*
X34184Y31227D01*
X35034D01*
X35459Y30802D01*
Y30377D01*
X33759D01*
X12185Y28140D02*
Y25591D01*
Y26865D01*
X12610Y27290D01*
X13460D01*
X13884Y26865D01*
Y25591D01*
X15159Y27290D02*
X16009D01*
X16434Y26865D01*
Y25591D01*
X15159D01*
X14734Y26015D01*
X15159Y26440D01*
X16434D01*
X17283Y27290D02*
Y25591D01*
Y26440D01*
X17708Y26865D01*
X18133Y27290D01*
X18558D01*
X21532Y28140D02*
Y25591D01*
X20257D01*
X19832Y26015D01*
Y26865D01*
X20257Y27290D01*
X21532D01*
X22382D02*
Y26015D01*
X22806Y25591D01*
X23231Y26015D01*
X23656Y25591D01*
X24081Y26015D01*
Y27290D01*
X25356D02*
X26206D01*
X26630Y26865D01*
Y25591D01*
X25356D01*
X24931Y26015D01*
X25356Y26440D01*
X26630D01*
X27480Y27290D02*
Y25591D01*
Y26440D01*
X27905Y26865D01*
X28330Y27290D01*
X28755D01*
X31304Y25591D02*
X30454D01*
X30029Y26015D01*
Y26865D01*
X30454Y27290D01*
X31304D01*
X31729Y26865D01*
Y26440D01*
X30029D01*
D17*
X13290Y160879D02*
X11024D01*
Y159179D01*
X12157Y159746D01*
X12723D01*
X13290Y159179D01*
Y158046D01*
X12723Y157480D01*
X11591D01*
X11024Y158046D01*
X14423Y160879D02*
Y158613D01*
X15556Y157480D01*
X16689Y158613D01*
Y160879D01*
X63683Y142126D02*
X61417D01*
X63683Y144392D01*
Y144958D01*
X63116Y145525D01*
X61984D01*
X61417Y144958D01*
X23622Y182753D02*
X24189Y183320D01*
X25321D01*
X25888Y182753D01*
Y182187D01*
X25321Y181621D01*
X24755D01*
X25321D01*
X25888Y181054D01*
Y180488D01*
X25321Y179921D01*
X24189D01*
X23622Y180488D01*
X27021D02*
X27587Y179921D01*
X28720D01*
X29287Y180488D01*
Y182753D01*
X28720Y183320D01*
X27587D01*
X27021Y182753D01*
Y182187D01*
X27587Y181621D01*
X29287D01*
X63511Y179921D02*
Y183320D01*
X61811Y181621D01*
X64077D01*
X65210Y182753D02*
X65776Y183320D01*
X66909D01*
X67476Y182753D01*
Y180488D01*
X66909Y179921D01*
X65776D01*
X65210Y180488D01*
Y182753D01*
M02*
