M48
;Layer_Color=9474304
;FILE_FORMAT=2:4
INCH,TZ
;TYPE=PLATED
T1F00S00C0.0118
T2F00S00C0.0197
T3F00S00C0.0197
T4F00S00C0.0380
T5F00S00C0.0400
;TYPE=NON_PLATED
T6F00S00C0.1102
%
T01
X3937Y17244
T02
X2200Y550
X640Y2450
X12580Y5820
X18970Y2390
X17470Y560
X17170Y19000
X2370Y19010
T03
X5630Y8819
X6693Y8858
X7283Y9449
X13937Y13819
T04
X11150Y3811
Y4811
Y5811
Y6811
Y7811
Y8811
Y9811
Y10811
Y11811
Y12811
Y13811
Y14811
X14150Y8811
X15150
Y7811
Y6811
Y5811
Y4811
X14150
Y5811
Y6811
Y7811
Y3811
X15150
X17150
Y4811
Y5811
Y6811
Y7811
Y8811
Y9811
Y10811
Y11811
Y12811
Y13811
Y14811
Y15811
Y16811
X11150
Y15811
T05
X945Y7402
Y10236
X1945
X12441Y1535
X13441
X14441
X15441
X16441
X18701Y3819
Y4819
Y8819
Y9819
Y12795
Y13795
Y14795
Y15795
Y16795
X10583Y18386
X9583
X8583
X7583
X1945Y16772
X945
T06
X1299Y1299
X18347
Y18347
X1299
M30
