G04*
G04 #@! TF.GenerationSoftware,Altium Limited,Altium Designer,21.6.1 (37)*
G04*
G04 Layer_Physical_Order=1*
G04 Layer_Color=255*
%FSLAX25Y25*%
%MOIN*%
G70*
G04*
G04 #@! TF.SameCoordinates,3D0E8F73-5774-4D33-84BA-408F2C82BF8C*
G04*
G04*
G04 #@! TF.FilePolarity,Positive*
G04*
G01*
G75*
%ADD24C,0.00787*%
%ADD25R,0.04331X0.01181*%
%ADD26R,0.05197X0.05118*%
%ADD27C,0.02000*%
%ADD28C,0.01000*%
%ADD29C,0.07400*%
%ADD30C,0.11024*%
%ADD31C,0.05800*%
%ADD32C,0.02362*%
%ADD33C,0.03937*%
G36*
X31734Y194120D02*
X22878Y185264D01*
X22339Y185411D01*
X22249Y185860D01*
X22122Y186234D01*
X22020Y186617D01*
X21604Y187620D01*
X21406Y187963D01*
X21231Y188317D01*
X20628Y189220D01*
X20367Y189518D01*
X20126Y189831D01*
X19358Y190599D01*
X19045Y190840D01*
X18747Y191101D01*
X17844Y191704D01*
X17490Y191879D01*
X17147Y192077D01*
X16144Y192493D01*
X15761Y192595D01*
X15387Y192722D01*
X14322Y192934D01*
X13927Y192960D01*
X13535Y193011D01*
X12449D01*
X12057Y192960D01*
X11662Y192934D01*
X10597Y192722D01*
X10222Y192595D01*
X9840Y192493D01*
X8837Y192077D01*
X8494Y191879D01*
X8140Y191704D01*
X7237Y191101D01*
X6939Y190840D01*
X6626Y190599D01*
X5858Y189831D01*
X5617Y189518D01*
X5356Y189220D01*
X4753Y188317D01*
X4578Y187962D01*
X4533Y187885D01*
X4033Y188019D01*
X4033Y188116D01*
X4151Y189015D01*
X4386Y189891D01*
X4733Y190728D01*
X5187Y191514D01*
X5738Y192233D01*
X6380Y192874D01*
X7099Y193426D01*
X7885Y193880D01*
X8722Y194227D01*
X9598Y194462D01*
X10497Y194580D01*
X10951Y194580D01*
X10951Y194580D01*
X10951Y194580D01*
X31543Y194582D01*
X31734Y194120D01*
D02*
G37*
G36*
X32078Y175213D02*
X31677D01*
Y173922D01*
X34843D01*
X38008D01*
Y174577D01*
X39490D01*
Y174557D01*
X40272Y174713D01*
X40687Y174990D01*
X41187Y174723D01*
Y171548D01*
Y169565D01*
X38383Y166761D01*
X37609D01*
Y172031D01*
X38008D01*
Y173322D01*
X34843D01*
X31677D01*
Y172031D01*
X32078D01*
Y170463D01*
Y166525D01*
Y162824D01*
X30315D01*
X30253Y162812D01*
X29753Y163186D01*
Y178515D01*
X32078D01*
Y175213D01*
D02*
G37*
G36*
X186319Y194474D02*
X187249Y194225D01*
X188138Y193856D01*
X188971Y193375D01*
X189735Y192789D01*
X190415Y192108D01*
X191001Y191345D01*
X191483Y190511D01*
X191851Y189622D01*
X192100Y188692D01*
X192111Y188608D01*
X191631Y188427D01*
X191101Y189220D01*
X190840Y189518D01*
X190599Y189831D01*
X189831Y190599D01*
X189518Y190840D01*
X189220Y191101D01*
X188317Y191704D01*
X187962Y191879D01*
X187620Y192077D01*
X186617Y192493D01*
X186234Y192595D01*
X185860Y192722D01*
X184795Y192934D01*
X184400Y192960D01*
X184008Y193011D01*
X182922D01*
X182530Y192960D01*
X182135Y192934D01*
X181070Y192722D01*
X180695Y192595D01*
X180313Y192493D01*
X179310Y192077D01*
X178967Y191879D01*
X178613Y191704D01*
X177710Y191101D01*
X177412Y190840D01*
X177099Y190599D01*
X176331Y189831D01*
X176090Y189518D01*
X175829Y189220D01*
X175226Y188317D01*
X175051Y187962D01*
X174853Y187620D01*
X174437Y186617D01*
X174335Y186234D01*
X174208Y185860D01*
X173996Y184795D01*
X173970Y184400D01*
X173918Y184008D01*
Y182922D01*
X173970Y182530D01*
X173996Y182135D01*
X174208Y181070D01*
X174335Y180695D01*
X174437Y180313D01*
X174853Y179310D01*
X175051Y178967D01*
X175226Y178613D01*
X175829Y177710D01*
X176090Y177412D01*
X176331Y177099D01*
X177099Y176331D01*
X177412Y176090D01*
X177710Y175829D01*
X178613Y175226D01*
X178967Y175051D01*
X179310Y174853D01*
X180313Y174437D01*
X180695Y174335D01*
X181070Y174208D01*
X182135Y173996D01*
X182530Y173970D01*
X182922Y173918D01*
X184008D01*
X184400Y173970D01*
X184795Y173996D01*
X185860Y174208D01*
X186234Y174335D01*
X186617Y174437D01*
X187620Y174853D01*
X187963Y175051D01*
X188317Y175226D01*
X189220Y175829D01*
X189518Y176090D01*
X189831Y176331D01*
X190599Y177099D01*
X190840Y177412D01*
X191101Y177710D01*
X191704Y178613D01*
X191738Y178682D01*
X192238Y178565D01*
X192473Y17461D01*
X191973Y17327D01*
X191879Y17490D01*
X191704Y17844D01*
X191101Y18747D01*
X190840Y19045D01*
X190599Y19358D01*
X189831Y20126D01*
X189518Y20367D01*
X189220Y20628D01*
X188317Y21231D01*
X187962Y21406D01*
X187620Y21604D01*
X186617Y22020D01*
X186234Y22122D01*
X185860Y22249D01*
X184795Y22461D01*
X184400Y22487D01*
X184008Y22538D01*
X182922D01*
X182530Y22487D01*
X182135Y22461D01*
X181070Y22249D01*
X180695Y22122D01*
X180313Y22020D01*
X179310Y21604D01*
X178967Y21406D01*
X178613Y21231D01*
X177710Y20628D01*
X177412Y20367D01*
X177099Y20126D01*
X176331Y19358D01*
X176090Y19045D01*
X175829Y18747D01*
X175226Y17844D01*
X175051Y17490D01*
X174853Y17147D01*
X174437Y16144D01*
X174335Y15762D01*
X174208Y15387D01*
X173996Y14322D01*
X173970Y13927D01*
X173918Y13535D01*
Y12449D01*
X173970Y12057D01*
X173996Y11662D01*
X174208Y10597D01*
X174335Y10222D01*
X174437Y9840D01*
X174853Y8837D01*
X175051Y8494D01*
X175226Y8140D01*
X175829Y7237D01*
X176090Y6939D01*
X176331Y6626D01*
X177099Y5858D01*
X177412Y5617D01*
X177710Y5356D01*
X178613Y4753D01*
X178967Y4578D01*
X179310Y4380D01*
X179404Y4341D01*
X179304Y3841D01*
X17537Y4028D01*
X17404Y4528D01*
X17490Y4578D01*
X17844Y4753D01*
X18747Y5356D01*
X19045Y5617D01*
X19358Y5858D01*
X20126Y6626D01*
X20367Y6939D01*
X20628Y7237D01*
X21231Y8140D01*
X21406Y8495D01*
X21604Y8837D01*
X22020Y9840D01*
X22122Y10222D01*
X22249Y10597D01*
X22461Y11662D01*
X22487Y12057D01*
X22538Y12449D01*
Y13535D01*
X22487Y13927D01*
X22461Y14322D01*
X22249Y15387D01*
X22122Y15762D01*
X22020Y16144D01*
X21604Y17147D01*
X21406Y17490D01*
X21231Y17844D01*
X20628Y18747D01*
X20367Y19045D01*
X20126Y19358D01*
X19358Y20126D01*
X19045Y20367D01*
X18747Y20628D01*
X17844Y21231D01*
X17490Y21406D01*
X17147Y21604D01*
X16144Y22020D01*
X15761Y22122D01*
X15387Y22249D01*
X14322Y22461D01*
X13927Y22487D01*
X13535Y22538D01*
X12449D01*
X12057Y22487D01*
X11662Y22461D01*
X10597Y22249D01*
X10222Y22122D01*
X9840Y22020D01*
X8837Y21604D01*
X8494Y21406D01*
X8140Y21231D01*
X7237Y20628D01*
X6939Y20367D01*
X6626Y20126D01*
X5858Y19358D01*
X5617Y19045D01*
X5356Y18747D01*
X4753Y17844D01*
X4578Y17490D01*
X4536Y17417D01*
X4036Y17551D01*
X4033Y178911D01*
X4533Y179045D01*
X4578Y178967D01*
X4753Y178613D01*
X5356Y177710D01*
X5617Y177412D01*
X5858Y177099D01*
X6626Y176331D01*
X6939Y176090D01*
X7237Y175829D01*
X8140Y175226D01*
X8495Y175051D01*
X8837Y174853D01*
X9840Y174437D01*
X10222Y174335D01*
X10597Y174208D01*
X11662Y173996D01*
X12057Y173970D01*
X12449Y173918D01*
X13535D01*
X13927Y173970D01*
X14322Y173996D01*
X15387Y174208D01*
X15762Y174335D01*
X16144Y174437D01*
X17147Y174853D01*
X17490Y175051D01*
X17844Y175226D01*
X18747Y175829D01*
X19045Y176090D01*
X19358Y176331D01*
X20126Y177099D01*
X20367Y177412D01*
X20628Y177710D01*
X21231Y178613D01*
X21406Y178967D01*
X21604Y179310D01*
X21879Y179973D01*
X22378Y179873D01*
Y177365D01*
X19870Y174856D01*
X19493Y174934D01*
X18868Y174813D01*
X18336Y174463D01*
X17980Y173936D01*
X17852Y173312D01*
X17842Y171706D01*
X17280Y171473D01*
X16382Y170784D01*
X15693Y169886D01*
X15480Y169372D01*
X13412Y169385D01*
X13205Y169886D01*
X12516Y170784D01*
X11618Y171473D01*
X10571Y171906D01*
X9449Y172054D01*
X8326Y171906D01*
X7281Y171473D01*
X6382Y170784D01*
X5693Y169886D01*
X5260Y168840D01*
X5112Y167717D01*
X5260Y166595D01*
X5693Y165549D01*
X6382Y164650D01*
X7281Y163961D01*
X8326Y163528D01*
X9449Y163380D01*
X10571Y163528D01*
X11618Y163961D01*
X12516Y164650D01*
X13205Y165549D01*
X13443Y166122D01*
X15460Y166110D01*
X15693Y165549D01*
X16382Y164650D01*
X17280Y163961D01*
X18327Y163528D01*
X19449Y163380D01*
X20572Y163528D01*
X21618Y163961D01*
X22516Y164650D01*
X23205Y165549D01*
X23638Y166595D01*
X23786Y167717D01*
X23638Y168840D01*
X23205Y169886D01*
X22516Y170784D01*
X21618Y171473D01*
X21104Y171686D01*
X21112Y172926D01*
X24293Y176107D01*
X24293Y176107D01*
X24536Y176471D01*
X24622Y176900D01*
X24622Y176900D01*
Y183835D01*
X35369Y194583D01*
X37516Y194583D01*
X37987Y194083D01*
Y189779D01*
X35576D01*
Y186220D01*
X35276D01*
Y185920D01*
X31677D01*
Y182661D01*
X31240Y182509D01*
X27165D01*
X26777Y182432D01*
X26449Y182212D01*
X26229Y181884D01*
X26152Y181496D01*
Y112824D01*
X9449D01*
X9061Y112747D01*
X8733Y112527D01*
X8513Y112199D01*
X8436Y111811D01*
Y106566D01*
X8326Y106551D01*
X7281Y106118D01*
X6382Y105429D01*
X5693Y104531D01*
X5260Y103484D01*
X5112Y102362D01*
X5260Y101240D01*
X5693Y100193D01*
X6382Y99295D01*
X7281Y98606D01*
X8326Y98173D01*
X9449Y98025D01*
X10571Y98173D01*
X11618Y98606D01*
X12516Y99295D01*
X13205Y100193D01*
X13638Y101240D01*
X13786Y102362D01*
X13638Y103484D01*
X13205Y104531D01*
X12516Y105429D01*
X11618Y106118D01*
X10571Y106551D01*
X10462Y106566D01*
Y110798D01*
X18527D01*
X18794Y110298D01*
X18749Y110231D01*
X18672Y109843D01*
Y106597D01*
X18327Y106551D01*
X17280Y106118D01*
X16382Y105429D01*
X15693Y104531D01*
X15260Y103484D01*
X15112Y102362D01*
X15260Y101240D01*
X15693Y100193D01*
X16382Y99295D01*
X17280Y98606D01*
X18327Y98173D01*
X19449Y98025D01*
X20572Y98173D01*
X21618Y98606D01*
X22516Y99295D01*
X23205Y100193D01*
X23638Y101240D01*
X23786Y102362D01*
X23638Y103484D01*
X23205Y104531D01*
X22516Y105429D01*
X21618Y106118D01*
X20698Y106499D01*
Y108830D01*
X28740D01*
X28802Y108842D01*
X29302Y108468D01*
Y75029D01*
X13653D01*
X13638Y75138D01*
X13205Y76185D01*
X12516Y77083D01*
X11618Y77772D01*
X10571Y78205D01*
X9449Y78353D01*
X8326Y78205D01*
X7281Y77772D01*
X6382Y77083D01*
X5693Y76185D01*
X5260Y75138D01*
X5112Y74016D01*
X5260Y72894D01*
X5693Y71847D01*
X6382Y70949D01*
X7281Y70260D01*
X8326Y69827D01*
X9449Y69679D01*
X10571Y69827D01*
X11618Y70260D01*
X12516Y70949D01*
X13205Y71847D01*
X13638Y72894D01*
X13653Y73003D01*
X30315D01*
X30703Y73080D01*
X31031Y73300D01*
X31251Y73628D01*
X31328Y74016D01*
Y135456D01*
X31677Y135811D01*
X34976D01*
Y139370D01*
X35576D01*
Y135811D01*
X37887D01*
Y44698D01*
X37964Y44311D01*
X38184Y43982D01*
X58882Y23284D01*
X59211Y23064D01*
X59598Y22987D01*
X163200D01*
X163588Y23064D01*
X163916Y23284D01*
X167216Y26584D01*
X167436Y26912D01*
X167513Y27300D01*
Y37717D01*
X168013Y37750D01*
X168086Y37196D01*
X168439Y36345D01*
X169000Y35614D01*
X169731Y35053D01*
X170582Y34700D01*
X171496Y34580D01*
X172410Y34700D01*
X173261Y35053D01*
X173992Y35614D01*
X174553Y36345D01*
X174897Y37176D01*
X182804D01*
X182819Y37067D01*
X183252Y36020D01*
X183941Y35122D01*
X184839Y34433D01*
X185886Y34000D01*
X187008Y33852D01*
X188130Y34000D01*
X189176Y34433D01*
X190075Y35122D01*
X190764Y36020D01*
X191197Y37067D01*
X191345Y38189D01*
X191197Y39312D01*
X190764Y40358D01*
X190075Y41256D01*
X189176Y41945D01*
X188130Y42378D01*
X187008Y42526D01*
X185886Y42378D01*
X184839Y41945D01*
X183941Y41256D01*
X183252Y40358D01*
X182819Y39312D01*
X182804Y39202D01*
X174832D01*
X174553Y39875D01*
X173992Y40606D01*
X173261Y41167D01*
X172410Y41520D01*
X171496Y41640D01*
X170582Y41520D01*
X169731Y41167D01*
X169000Y40606D01*
X168439Y39875D01*
X168086Y39024D01*
X168013Y38470D01*
X167513Y38503D01*
Y42694D01*
X169830Y45011D01*
X170582Y44700D01*
X171496Y44580D01*
X172410Y44700D01*
X173261Y45053D01*
X173992Y45614D01*
X174553Y46345D01*
X174832Y47019D01*
X182838D01*
X183252Y46020D01*
X183941Y45122D01*
X184839Y44433D01*
X185886Y44000D01*
X187008Y43852D01*
X188130Y44000D01*
X189176Y44433D01*
X190075Y45122D01*
X190764Y46020D01*
X191197Y47067D01*
X191345Y48189D01*
X191197Y49312D01*
X190764Y50358D01*
X190075Y51256D01*
X189176Y51945D01*
X188130Y52378D01*
X187008Y52526D01*
X185886Y52378D01*
X184839Y51945D01*
X183941Y51256D01*
X183252Y50358D01*
X182819Y49312D01*
X182784Y49045D01*
X174897D01*
X174553Y49875D01*
X173992Y50606D01*
X173261Y51167D01*
X172410Y51520D01*
X171496Y51640D01*
X170582Y51520D01*
X169731Y51167D01*
X169000Y50606D01*
X168439Y49875D01*
X168086Y49024D01*
X167966Y48110D01*
X168086Y47196D01*
X168398Y46444D01*
X166085Y44132D01*
X165784Y43930D01*
X165564Y43602D01*
X165487Y43214D01*
Y27720D01*
X162780Y25013D01*
X160582D01*
X160532Y25513D01*
X160788Y25564D01*
X161116Y25784D01*
X163557Y28225D01*
X163622Y28321D01*
X163702Y28406D01*
X163731Y28484D01*
X163777Y28553D01*
X163800Y28668D01*
X163841Y28776D01*
X164610Y33455D01*
X164608Y33538D01*
X164624Y33620D01*
Y50199D01*
X169588Y55163D01*
X169731Y55053D01*
X170582Y54700D01*
X171496Y54580D01*
X172410Y54700D01*
X173261Y55053D01*
X173992Y55614D01*
X174553Y56345D01*
X174906Y57196D01*
X175026Y58110D01*
X174906Y59024D01*
X174553Y59875D01*
X173992Y60606D01*
X173261Y61167D01*
X172410Y61520D01*
X171496Y61640D01*
X170582Y61520D01*
X169731Y61167D01*
X169000Y60606D01*
X168439Y59875D01*
X168086Y59024D01*
X167966Y58110D01*
X168086Y57196D01*
X168282Y56723D01*
X162894Y51335D01*
X162675Y51006D01*
X162598Y50619D01*
Y33703D01*
X161937Y29690D01*
X161749Y29559D01*
X161249Y29820D01*
Y56273D01*
X169941Y64966D01*
X170582Y64700D01*
X171496Y64580D01*
X172410Y64700D01*
X173261Y65053D01*
X173992Y65614D01*
X174553Y66345D01*
X174906Y67196D01*
X175026Y68110D01*
X174906Y69024D01*
X174553Y69875D01*
X173992Y70606D01*
X173261Y71167D01*
X172410Y71520D01*
X171496Y71640D01*
X170582Y71520D01*
X169731Y71167D01*
X169000Y70606D01*
X168439Y69875D01*
X168086Y69024D01*
X167966Y68110D01*
X168086Y67196D01*
X168439Y66345D01*
X168446Y66336D01*
X159520Y57409D01*
X159300Y57081D01*
X159223Y56693D01*
Y30013D01*
X58942D01*
X58530Y30425D01*
X58722Y30887D01*
X157074D01*
X157461Y30964D01*
X157790Y31184D01*
X158196Y31590D01*
X158416Y31919D01*
X158493Y32306D01*
Y63753D01*
X169774Y75035D01*
X170582Y74700D01*
X171496Y74580D01*
X172410Y74700D01*
X173261Y75053D01*
X173992Y75614D01*
X174553Y76345D01*
X174906Y77196D01*
X175026Y78110D01*
X174906Y79024D01*
X174553Y79875D01*
X173992Y80606D01*
X173261Y81167D01*
X172410Y81520D01*
X171496Y81640D01*
X170582Y81520D01*
X169731Y81167D01*
X169000Y80606D01*
X168439Y79875D01*
X168086Y79024D01*
X167966Y78110D01*
X168086Y77196D01*
X168374Y76500D01*
X156764Y64889D01*
X156544Y64561D01*
X156467Y64173D01*
Y32913D01*
X58004D01*
X54598Y36320D01*
X54789Y36782D01*
X108258D01*
X108439Y36345D01*
X109000Y35614D01*
X109731Y35053D01*
X110582Y34700D01*
X111496Y34580D01*
X112410Y34700D01*
X113261Y35053D01*
X113992Y35614D01*
X114553Y36345D01*
X114906Y37196D01*
X115026Y38110D01*
X114906Y39024D01*
X114553Y39875D01*
X113992Y40606D01*
X113261Y41167D01*
X112410Y41520D01*
X111496Y41640D01*
X110582Y41520D01*
X109731Y41167D01*
X109000Y40606D01*
X108439Y39875D01*
X108086Y39024D01*
X108058Y38808D01*
X54071D01*
X47599Y45280D01*
X47642Y45488D01*
X47816Y45770D01*
X108200D01*
X108588Y45847D01*
X108742Y45950D01*
X109000Y45614D01*
X109731Y45053D01*
X110582Y44700D01*
X111496Y44580D01*
X112410Y44700D01*
X113261Y45053D01*
X113992Y45614D01*
X114553Y46345D01*
X114906Y47196D01*
X115026Y48110D01*
X114906Y49024D01*
X114553Y49875D01*
X113992Y50606D01*
X113261Y51167D01*
X112410Y51520D01*
X111496Y51640D01*
X110582Y51520D01*
X109731Y51167D01*
X109000Y50606D01*
X108439Y49875D01*
X108086Y49024D01*
X107966Y48110D01*
X107563Y47797D01*
X48226D01*
Y48882D01*
Y56993D01*
X48369Y57117D01*
X48726Y57311D01*
X49006Y57255D01*
X108078D01*
X108086Y57196D01*
X108439Y56345D01*
X109000Y55614D01*
X109731Y55053D01*
X110582Y54700D01*
X111496Y54580D01*
X112410Y54700D01*
X113261Y55053D01*
X113992Y55614D01*
X114553Y56345D01*
X114906Y57196D01*
X115026Y58110D01*
X114906Y59024D01*
X114553Y59875D01*
X113992Y60606D01*
X113261Y61167D01*
X112410Y61520D01*
X111496Y61640D01*
X110582Y61520D01*
X109731Y61167D01*
X109000Y60606D01*
X108439Y59875D01*
X108193Y59281D01*
X49613D01*
Y66977D01*
X50113Y67244D01*
X50219Y67174D01*
X50606Y67097D01*
X108127D01*
X108439Y66345D01*
X109000Y65614D01*
X109731Y65053D01*
X110582Y64700D01*
X111496Y64580D01*
X112410Y64700D01*
X113261Y65053D01*
X113992Y65614D01*
X114553Y66345D01*
X114906Y67196D01*
X115026Y68110D01*
X114906Y69024D01*
X114553Y69875D01*
X113992Y70606D01*
X113261Y71167D01*
X112410Y71520D01*
X111496Y71640D01*
X110582Y71520D01*
X109731Y71167D01*
X109000Y70606D01*
X108439Y69875D01*
X108127Y69123D01*
X51213D01*
Y77461D01*
X51713Y77776D01*
X51900Y77739D01*
X108015D01*
X108086Y77196D01*
X108439Y76345D01*
X109000Y75614D01*
X109731Y75053D01*
X110582Y74700D01*
X111496Y74580D01*
X112410Y74700D01*
X113261Y75053D01*
X113992Y75614D01*
X114553Y76345D01*
X114906Y77196D01*
X115026Y78110D01*
X114906Y79024D01*
X114553Y79875D01*
X113992Y80606D01*
X113261Y81167D01*
X112410Y81520D01*
X112525Y81987D01*
X125241D01*
X138121Y69107D01*
X138086Y69024D01*
X137966Y68110D01*
X138086Y67196D01*
X138439Y66345D01*
X139000Y65614D01*
X139731Y65053D01*
X140582Y64700D01*
X141496Y64580D01*
X142410Y64700D01*
X143261Y65053D01*
X143992Y65614D01*
X144553Y66345D01*
X144906Y67196D01*
X145026Y68110D01*
X144906Y69024D01*
X144553Y69875D01*
X143992Y70606D01*
X143261Y71167D01*
X142410Y71520D01*
X141496Y71640D01*
X140582Y71520D01*
X139731Y71167D01*
X139276Y70818D01*
X126581Y83513D01*
X126377Y83716D01*
X126049Y83936D01*
X125661Y84013D01*
X79753D01*
Y86420D01*
X80253Y86794D01*
X80315Y86782D01*
X108258D01*
X108439Y86345D01*
X109000Y85614D01*
X109731Y85053D01*
X110582Y84700D01*
X111496Y84580D01*
X112410Y84700D01*
X113261Y85053D01*
X113992Y85614D01*
X114553Y86345D01*
X114906Y87196D01*
X115026Y88110D01*
X114906Y89024D01*
X114553Y89875D01*
X113992Y90606D01*
X113261Y91167D01*
X112700Y91400D01*
X112799Y91900D01*
X125564D01*
X138190Y79275D01*
X138086Y79024D01*
X137966Y78110D01*
X138086Y77196D01*
X138439Y76345D01*
X139000Y75614D01*
X139731Y75053D01*
X140582Y74700D01*
X141496Y74580D01*
X142410Y74700D01*
X143261Y75053D01*
X143992Y75614D01*
X144553Y76345D01*
X144906Y77196D01*
X145026Y78110D01*
X144906Y79024D01*
X144553Y79875D01*
X143992Y80606D01*
X143261Y81167D01*
X142410Y81520D01*
X141496Y81640D01*
X140582Y81520D01*
X139731Y81167D01*
X139410Y80921D01*
X126700Y93629D01*
X126372Y93849D01*
X125984Y93926D01*
X82903D01*
Y96657D01*
X83403Y97031D01*
X83465Y97019D01*
X108160D01*
X108439Y96345D01*
X109000Y95614D01*
X109731Y95053D01*
X110582Y94700D01*
X111496Y94580D01*
X112410Y94700D01*
X113261Y95053D01*
X113992Y95614D01*
X114553Y96345D01*
X114906Y97196D01*
X115026Y98110D01*
X114906Y99024D01*
X114553Y99875D01*
X113992Y100606D01*
X113261Y101167D01*
X112410Y101520D01*
X111496Y101640D01*
X110582Y101520D01*
X109731Y101167D01*
X109000Y100606D01*
X108439Y99875D01*
X108095Y99045D01*
X84478D01*
Y101774D01*
X84978Y102149D01*
X85039Y102137D01*
X136588D01*
X140719Y98005D01*
Y91538D01*
X140582Y91520D01*
X139731Y91167D01*
X139000Y90606D01*
X138439Y89875D01*
X138086Y89024D01*
X137966Y88110D01*
X138086Y87196D01*
X138439Y86345D01*
X139000Y85614D01*
X139731Y85053D01*
X140582Y84700D01*
X141496Y84580D01*
X142410Y84700D01*
X143261Y85053D01*
X143992Y85614D01*
X144553Y86345D01*
X144906Y87196D01*
X145026Y88110D01*
X144906Y89024D01*
X144553Y89875D01*
X143992Y90606D01*
X143261Y91167D01*
X142745Y91381D01*
Y98425D01*
X142707Y98618D01*
X142668Y98813D01*
X142668Y98813D01*
X142668Y98813D01*
X142548Y98993D01*
X142448Y99141D01*
X142448Y99141D01*
X142448Y99141D01*
X137724Y103866D01*
X137724Y103866D01*
X137724Y103866D01*
X137579Y103963D01*
X137396Y104086D01*
X137396Y104086D01*
X137396Y104086D01*
X137220Y104121D01*
X137008Y104163D01*
X137008Y104163D01*
X137008Y104163D01*
X112162D01*
X112129Y104663D01*
X112410Y104700D01*
X113261Y105053D01*
X113992Y105614D01*
X114553Y106345D01*
X114906Y107196D01*
X115026Y108110D01*
X114906Y109024D01*
X114553Y109875D01*
X113992Y110606D01*
X113261Y111167D01*
X112509Y111479D01*
X112608Y111979D01*
X140131D01*
X150562Y101549D01*
Y91511D01*
X149731Y91167D01*
X149000Y90606D01*
X148439Y89875D01*
X148086Y89024D01*
X147966Y88110D01*
X148086Y87196D01*
X148439Y86345D01*
X149000Y85614D01*
X149731Y85053D01*
X150582Y84700D01*
X151496Y84580D01*
X152410Y84700D01*
X153261Y85053D01*
X153992Y85614D01*
X154553Y86345D01*
X154906Y87196D01*
X155026Y88110D01*
X154906Y89024D01*
X154553Y89875D01*
X153992Y90606D01*
X153261Y91167D01*
X152588Y91446D01*
Y101969D01*
X152511Y102357D01*
X152511Y102357D01*
X152511Y102357D01*
X152423Y102489D01*
X152291Y102685D01*
X152291Y102685D01*
X141267Y113708D01*
X140939Y113928D01*
X140551Y114005D01*
X89202D01*
Y116735D01*
X89702Y117109D01*
X89764Y117097D01*
X108127D01*
X108439Y116345D01*
X109000Y115614D01*
X109731Y115053D01*
X110582Y114700D01*
X111496Y114580D01*
X112410Y114700D01*
X113261Y115053D01*
X113992Y115614D01*
X114553Y116345D01*
X114906Y117196D01*
X115026Y118110D01*
X114906Y119024D01*
X114553Y119875D01*
X113992Y120606D01*
X113261Y121167D01*
X112888Y121322D01*
X112987Y121822D01*
X155092D01*
X168063Y108850D01*
X167966Y108110D01*
X168086Y107196D01*
X168439Y106345D01*
X169000Y105614D01*
X169731Y105053D01*
X170582Y104700D01*
X171496Y104580D01*
X172410Y104700D01*
X173261Y105053D01*
X173992Y105614D01*
X174553Y106345D01*
X174906Y107196D01*
X175026Y108110D01*
X174906Y109024D01*
X174553Y109875D01*
X173992Y110606D01*
X173261Y111167D01*
X172410Y111520D01*
X171496Y111640D01*
X170582Y111520D01*
X169731Y111167D01*
X169098Y110681D01*
X156228Y123551D01*
X156228Y123551D01*
X155900Y123771D01*
X155900Y123771D01*
X155512Y123848D01*
X92352D01*
Y126970D01*
X92852Y127345D01*
X92913Y127333D01*
X108068D01*
X108086Y127196D01*
X108439Y126345D01*
X109000Y125614D01*
X109731Y125053D01*
X110582Y124700D01*
X111496Y124580D01*
X112410Y124700D01*
X113261Y125053D01*
X113992Y125614D01*
X114553Y126345D01*
X114906Y127196D01*
X115026Y128110D01*
X114906Y129024D01*
X114553Y129875D01*
X113992Y130606D01*
X113261Y131167D01*
X112410Y131520D01*
X112122Y131558D01*
X112154Y132058D01*
X154698D01*
X168045Y118711D01*
X167966Y118110D01*
X168086Y117196D01*
X168439Y116345D01*
X169000Y115614D01*
X169731Y115053D01*
X170582Y114700D01*
X171496Y114580D01*
X172410Y114700D01*
X173261Y115053D01*
X173992Y115614D01*
X174553Y116345D01*
X174906Y117196D01*
X175026Y118110D01*
X174906Y119024D01*
X174553Y119875D01*
X173992Y120606D01*
X173261Y121167D01*
X172410Y121520D01*
X171496Y121640D01*
X170582Y121520D01*
X169731Y121167D01*
X169009Y120613D01*
X167559Y122063D01*
X167877Y122452D01*
X168116Y122292D01*
X168504Y122215D01*
X182677D01*
X182677Y122215D01*
X182677Y122215D01*
X182857Y122251D01*
X183065Y122292D01*
X183065Y122292D01*
X183065Y122292D01*
X183230Y122403D01*
X183393Y122512D01*
X183394Y122512D01*
X183394Y122512D01*
X185008Y124127D01*
X185886Y123764D01*
X187008Y123616D01*
X188130Y123764D01*
X189176Y124197D01*
X190075Y124886D01*
X190764Y125784D01*
X191197Y126830D01*
X191345Y127953D01*
X191197Y129076D01*
X190764Y130122D01*
X190075Y131020D01*
X189176Y131709D01*
X188130Y132142D01*
X187008Y132290D01*
X185886Y132142D01*
X184839Y131709D01*
X183941Y131020D01*
X183252Y130122D01*
X182819Y129076D01*
X182671Y127953D01*
X182819Y126830D01*
X183252Y125784D01*
X183490Y125474D01*
X182257Y124241D01*
X172608D01*
X172509Y124741D01*
X173261Y125053D01*
X173992Y125614D01*
X174553Y126345D01*
X174906Y127196D01*
X175026Y128110D01*
X174906Y129024D01*
X174553Y129875D01*
X173992Y130606D01*
X173261Y131167D01*
X172410Y131520D01*
X171496Y131640D01*
X170582Y131520D01*
X169731Y131167D01*
X169000Y130606D01*
X168866Y130597D01*
X155834Y143629D01*
X155506Y143849D01*
X155118Y143926D01*
X98651D01*
Y146657D01*
X99151Y147031D01*
X99213Y147019D01*
X108160D01*
X108439Y146345D01*
X109000Y145614D01*
X109731Y145053D01*
X110582Y144700D01*
X111496Y144580D01*
X112410Y144700D01*
X113261Y145053D01*
X113992Y145614D01*
X114553Y146345D01*
X114906Y147196D01*
X115026Y148110D01*
X114906Y149024D01*
X114553Y149875D01*
X113992Y150606D01*
X113261Y151167D01*
X112410Y151520D01*
X111496Y151640D01*
X110582Y151520D01*
X109731Y151167D01*
X109000Y150606D01*
X108439Y149875D01*
X108095Y149045D01*
X100226D01*
Y151774D01*
X100726Y152149D01*
X100787Y152137D01*
X154698D01*
X168054Y138780D01*
X167966Y138110D01*
X168086Y137196D01*
X168439Y136345D01*
X169000Y135614D01*
X169731Y135053D01*
X170582Y134700D01*
X171496Y134580D01*
X172410Y134700D01*
X173261Y135053D01*
X173992Y135614D01*
X174553Y136345D01*
X174897Y137176D01*
X182773D01*
X182819Y136830D01*
X183252Y135784D01*
X183941Y134886D01*
X184839Y134197D01*
X185886Y133764D01*
X187008Y133616D01*
X188130Y133764D01*
X189176Y134197D01*
X190075Y134886D01*
X190764Y135784D01*
X191197Y136830D01*
X191345Y137953D01*
X191197Y139076D01*
X190764Y140122D01*
X190075Y141020D01*
X189176Y141709D01*
X188130Y142142D01*
X187008Y142290D01*
X185886Y142142D01*
X184839Y141709D01*
X183941Y141020D01*
X183252Y140122D01*
X182871Y139202D01*
X174832D01*
X174553Y139875D01*
X173992Y140606D01*
X173261Y141167D01*
X172410Y141520D01*
X171496Y141640D01*
X170582Y141520D01*
X169731Y141167D01*
X169053Y140647D01*
X155834Y153866D01*
X155834Y153866D01*
X155506Y154086D01*
X155506Y154086D01*
X155118Y154163D01*
X112162D01*
X112129Y154663D01*
X112410Y154700D01*
X113261Y155053D01*
X113992Y155614D01*
X114553Y156345D01*
X114906Y157196D01*
X115026Y158110D01*
X114906Y159024D01*
X114553Y159875D01*
X113992Y160606D01*
X113261Y161167D01*
X112410Y161520D01*
X111496Y161640D01*
X110582Y161520D01*
X109731Y161167D01*
X109000Y160606D01*
X108439Y159875D01*
X108193Y159281D01*
X103375D01*
Y176365D01*
X103298Y176753D01*
X103078Y177082D01*
X102672Y177488D01*
X102343Y177708D01*
X101956Y177785D01*
X64793D01*
Y180804D01*
X64716Y181192D01*
X64496Y181521D01*
X63804Y182212D01*
X63475Y182432D01*
X63088Y182509D01*
X60099D01*
X59662Y182661D01*
Y185920D01*
X56063D01*
X52464D01*
Y182661D01*
X53730D01*
Y180306D01*
Y177181D01*
X53330D01*
Y175890D01*
X56496D01*
Y175290D01*
X53330D01*
Y174000D01*
X53730D01*
Y170463D01*
Y166525D01*
Y162589D01*
Y158651D01*
Y154715D01*
Y150777D01*
Y146841D01*
Y142929D01*
X52913D01*
Y159437D01*
X52836Y159824D01*
X52616Y160153D01*
X52210Y160559D01*
X51881Y160779D01*
X51494Y160856D01*
X37609D01*
Y162766D01*
X40022D01*
Y162736D01*
X41514Y162932D01*
X42904Y163508D01*
X44098Y164424D01*
X45014Y165618D01*
X45590Y167008D01*
X45786Y168500D01*
X45756D01*
Y181339D01*
Y183719D01*
X45757D01*
X45876Y184931D01*
X46230Y186097D01*
X46804Y187170D01*
X47576Y188112D01*
X48518Y188884D01*
X49591Y189458D01*
X50324Y189680D01*
X50342Y189667D01*
X50426Y189702D01*
X50897Y189725D01*
X52464D01*
Y186520D01*
X56063D01*
X59662D01*
Y189725D01*
X73097D01*
X74372Y188451D01*
X74266Y187874D01*
X74254Y187861D01*
X73658Y187614D01*
X72760Y186925D01*
X72071Y186027D01*
X71637Y184981D01*
X71490Y183858D01*
X71637Y182736D01*
X72071Y181690D01*
X72760Y180791D01*
X73658Y180102D01*
X74704Y179669D01*
X75827Y179521D01*
X76949Y179669D01*
X77995Y180102D01*
X78894Y180791D01*
X79583Y181690D01*
X80016Y182736D01*
X80164Y183858D01*
X80016Y184981D01*
X79583Y186027D01*
X78894Y186925D01*
X77995Y187614D01*
X76949Y188048D01*
X76840Y188062D01*
Y188429D01*
X76763Y188816D01*
X76543Y189145D01*
X75037Y190651D01*
X75229Y191113D01*
X78320D01*
X82651Y186783D01*
X82071Y186027D01*
X81638Y184981D01*
X81490Y183858D01*
X81638Y182736D01*
X82071Y181690D01*
X82760Y180791D01*
X83658Y180102D01*
X84704Y179669D01*
X85827Y179521D01*
X86949Y179669D01*
X87995Y180102D01*
X88894Y180791D01*
X89583Y181690D01*
X90016Y182736D01*
X90164Y183858D01*
X90016Y184981D01*
X89583Y186027D01*
X88894Y186925D01*
X87995Y187614D01*
X86949Y188048D01*
X85827Y188195D01*
X84704Y188048D01*
X84384Y187915D01*
X80073Y192226D01*
X80265Y192688D01*
X94814D01*
Y188062D01*
X94704Y188048D01*
X93658Y187614D01*
X92760Y186925D01*
X92071Y186027D01*
X91637Y184981D01*
X91490Y183858D01*
X91637Y182736D01*
X92071Y181690D01*
X92760Y180791D01*
X93658Y180102D01*
X94704Y179669D01*
X95827Y179521D01*
X96949Y179669D01*
X97995Y180102D01*
X98894Y180791D01*
X99583Y181690D01*
X100016Y182736D01*
X100164Y183858D01*
X100016Y184981D01*
X99583Y186027D01*
X98894Y186925D01*
X97995Y187614D01*
X96949Y188048D01*
X96840Y188062D01*
Y193294D01*
X96763Y193682D01*
X96709Y193762D01*
X96976Y194262D01*
X104814D01*
Y188062D01*
X104704Y188048D01*
X103658Y187614D01*
X102760Y186925D01*
X102071Y186027D01*
X101637Y184981D01*
X101490Y183858D01*
X101637Y182736D01*
X102071Y181690D01*
X102760Y180791D01*
X103658Y180102D01*
X104704Y179669D01*
X105827Y179521D01*
X106949Y179669D01*
X107995Y180102D01*
X108894Y180791D01*
X109583Y181690D01*
X110016Y182736D01*
X110164Y183858D01*
X110016Y184981D01*
X109583Y186027D01*
X108894Y186925D01*
X107995Y187614D01*
X106949Y188048D01*
X106840Y188062D01*
Y194591D01*
X157107Y194596D01*
X157598Y194333D01*
X158962Y193214D01*
X160081Y191850D01*
X160913Y190294D01*
X161425Y188606D01*
X161594Y186893D01*
X161585Y186850D01*
Y169414D01*
X161450Y169325D01*
X161093Y168798D01*
X160965Y168174D01*
X161085Y167549D01*
X161436Y167018D01*
X161963Y166661D01*
X162586Y166533D01*
X168376Y166498D01*
X168439Y166345D01*
X169000Y165614D01*
X169731Y165053D01*
X170582Y164700D01*
X171496Y164580D01*
X172410Y164700D01*
X173261Y165053D01*
X173992Y165614D01*
X174553Y166345D01*
X174575Y166397D01*
X183019Y166346D01*
X183252Y165784D01*
X183941Y164886D01*
X184839Y164197D01*
X185886Y163764D01*
X187008Y163616D01*
X188130Y163764D01*
X189176Y164197D01*
X190075Y164886D01*
X190764Y165784D01*
X191197Y166831D01*
X191345Y167953D01*
X191197Y169076D01*
X190764Y170122D01*
X190075Y171020D01*
X189176Y171709D01*
X188130Y172142D01*
X187008Y172290D01*
X185886Y172142D01*
X184839Y171709D01*
X183941Y171020D01*
X183252Y170122D01*
X183039Y169608D01*
X174643Y169660D01*
X174553Y169875D01*
X173992Y170606D01*
X173261Y171167D01*
X172410Y171520D01*
X171496Y171640D01*
X170582Y171520D01*
X169731Y171167D01*
X169000Y170606D01*
X168439Y169875D01*
X168391Y169760D01*
X163612Y169789D01*
Y186850D01*
X163626D01*
X163490Y188575D01*
X163086Y190258D01*
X162424Y191857D01*
X161520Y193332D01*
X160828Y194142D01*
X161037Y194597D01*
X184884Y194599D01*
X185364Y194599D01*
X186319Y194474D01*
D02*
G37*
G36*
X77727Y83406D02*
X77762Y83231D01*
X77804Y83019D01*
X77804Y83019D01*
X77912Y82856D01*
X77952Y82798D01*
X77952Y82797D01*
X78023Y82690D01*
X78217Y82477D01*
X78217Y82477D01*
X78217Y82477D01*
X78430Y82284D01*
X78596Y82172D01*
X78759Y82064D01*
X78759Y82064D01*
X78971Y82022D01*
X79146Y81987D01*
X110467D01*
X110582Y81520D01*
X109731Y81167D01*
X109000Y80606D01*
X108439Y79875D01*
X108393Y79765D01*
X52913D01*
Y135811D01*
X55763D01*
Y139370D01*
X56063D01*
Y139670D01*
X59662D01*
Y142929D01*
X60099Y143081D01*
X65916D01*
Y90943D01*
X65634Y90827D01*
X65097Y90415D01*
X64685Y89878D01*
X64427Y89253D01*
X64338Y88583D01*
X64427Y87912D01*
X64685Y87288D01*
X65097Y86751D01*
X65634Y86339D01*
X66259Y86081D01*
X66929Y85992D01*
X67599Y86081D01*
X68224Y86339D01*
X68761Y86751D01*
X69173Y87288D01*
X69431Y87912D01*
X69520Y88583D01*
X69431Y89253D01*
X69173Y89878D01*
X68761Y90415D01*
X68224Y90827D01*
X67942Y90943D01*
Y144094D01*
X67865Y144482D01*
X67819Y144550D01*
X68087Y145050D01*
X71822D01*
Y96848D01*
X71540Y96732D01*
X71003Y96320D01*
X70591Y95783D01*
X70333Y95158D01*
X70244Y94488D01*
X70333Y93818D01*
X70591Y93193D01*
X71003Y92656D01*
X71540Y92244D01*
X72164Y91986D01*
X72835Y91897D01*
X73506Y91986D01*
X74130Y92244D01*
X74667Y92656D01*
X75079Y93193D01*
X75337Y93818D01*
X75426Y94488D01*
X75337Y95158D01*
X75079Y95783D01*
X74667Y96320D01*
X74130Y96732D01*
X73848Y96848D01*
Y146063D01*
X73771Y146451D01*
X73725Y146519D01*
X73993Y147019D01*
X77727D01*
Y83406D01*
D02*
G37*
%LPC*%
G36*
X34976Y189779D02*
X31677D01*
Y186520D01*
X34976D01*
Y189779D01*
D02*
G37*
G36*
X111796Y172004D02*
Y168410D01*
X115390D01*
X115296Y169128D01*
X114903Y170077D01*
X114278Y170891D01*
X113463Y171517D01*
X112514Y171910D01*
X111796Y172004D01*
D02*
G37*
G36*
X111196D02*
X110478Y171910D01*
X109529Y171517D01*
X108714Y170891D01*
X108089Y170077D01*
X107696Y169128D01*
X107602Y168410D01*
X111196D01*
Y172004D01*
D02*
G37*
G36*
X115390Y167810D02*
X111796D01*
Y164216D01*
X112514Y164310D01*
X113463Y164703D01*
X114278Y165329D01*
X114903Y166143D01*
X115296Y167092D01*
X115390Y167810D01*
D02*
G37*
G36*
X111196D02*
X107602D01*
X107696Y167092D01*
X108089Y166143D01*
X108714Y165329D01*
X109529Y164703D01*
X110478Y164310D01*
X111196Y164216D01*
Y167810D01*
D02*
G37*
G36*
X171796Y162004D02*
Y158410D01*
X175390D01*
X175296Y159128D01*
X174903Y160077D01*
X174277Y160891D01*
X173463Y161517D01*
X172514Y161910D01*
X171796Y162004D01*
D02*
G37*
G36*
X171196D02*
X170478Y161910D01*
X169529Y161517D01*
X168714Y160891D01*
X168089Y160077D01*
X167696Y159128D01*
X167602Y158410D01*
X171196D01*
Y162004D01*
D02*
G37*
G36*
X187308Y162654D02*
Y158253D01*
X191709D01*
X191587Y159180D01*
X191113Y160323D01*
X190360Y161305D01*
X189378Y162058D01*
X188235Y162532D01*
X187308Y162654D01*
D02*
G37*
G36*
X186708D02*
X185781Y162532D01*
X184638Y162058D01*
X183656Y161305D01*
X182903Y160323D01*
X182429Y159180D01*
X182307Y158253D01*
X186708D01*
Y162654D01*
D02*
G37*
G36*
X175390Y157810D02*
X171796D01*
Y154216D01*
X172514Y154310D01*
X173463Y154703D01*
X174277Y155329D01*
X174903Y156143D01*
X175296Y157092D01*
X175390Y157810D01*
D02*
G37*
G36*
X171196D02*
X167602D01*
X167696Y157092D01*
X168089Y156143D01*
X168714Y155329D01*
X169529Y154703D01*
X170478Y154310D01*
X171196Y154216D01*
Y157810D01*
D02*
G37*
G36*
X191709Y157653D02*
X187308D01*
Y153252D01*
X188235Y153374D01*
X189378Y153848D01*
X190360Y154601D01*
X191113Y155583D01*
X191587Y156726D01*
X191709Y157653D01*
D02*
G37*
G36*
X186708D02*
X182307D01*
X182429Y156726D01*
X182903Y155583D01*
X183656Y154601D01*
X184638Y153848D01*
X185781Y153374D01*
X186708Y153252D01*
Y157653D01*
D02*
G37*
G36*
X187008Y152290D02*
X185886Y152142D01*
X184839Y151709D01*
X183941Y151020D01*
X183252Y150122D01*
X183039Y149609D01*
X174643Y149660D01*
X174553Y149875D01*
X173992Y150606D01*
X173261Y151167D01*
X172410Y151520D01*
X171496Y151640D01*
X170582Y151520D01*
X169731Y151167D01*
X169000Y150606D01*
X168439Y149875D01*
X168086Y149024D01*
X167966Y148110D01*
X168086Y147196D01*
X168439Y146345D01*
X169000Y145614D01*
X169731Y145053D01*
X170582Y144700D01*
X171496Y144580D01*
X172410Y144700D01*
X173261Y145053D01*
X173992Y145614D01*
X174553Y146345D01*
X174575Y146397D01*
X183019Y146346D01*
X183252Y145784D01*
X183941Y144886D01*
X184839Y144197D01*
X185886Y143764D01*
X187008Y143616D01*
X188130Y143764D01*
X189176Y144197D01*
X190075Y144886D01*
X190764Y145784D01*
X191197Y146830D01*
X191345Y147953D01*
X191197Y149075D01*
X190764Y150122D01*
X190075Y151020D01*
X189176Y151709D01*
X188130Y152142D01*
X187008Y152290D01*
D02*
G37*
G36*
Y102526D02*
X185886Y102378D01*
X184839Y101945D01*
X183941Y101256D01*
X183252Y100358D01*
X182871Y99438D01*
X174734D01*
X174553Y99875D01*
X173992Y100606D01*
X173261Y101167D01*
X172410Y101520D01*
X171496Y101640D01*
X170582Y101520D01*
X169731Y101167D01*
X169000Y100606D01*
X168439Y99875D01*
X168086Y99024D01*
X167966Y98110D01*
X168086Y97196D01*
X168439Y96345D01*
X169000Y95614D01*
X169731Y95053D01*
X170582Y94700D01*
X171496Y94580D01*
X172410Y94700D01*
X173261Y95053D01*
X173992Y95614D01*
X174553Y96345D01*
X174906Y97196D01*
X174934Y97412D01*
X182773D01*
X182819Y97066D01*
X183252Y96021D01*
X183941Y95122D01*
X184839Y94433D01*
X185886Y94000D01*
X187008Y93852D01*
X188130Y94000D01*
X189176Y94433D01*
X190075Y95122D01*
X190764Y96021D01*
X191197Y97066D01*
X191345Y98189D01*
X191197Y99312D01*
X190764Y100358D01*
X190075Y101256D01*
X189176Y101945D01*
X188130Y102378D01*
X187008Y102526D01*
D02*
G37*
G36*
Y92526D02*
X185886Y92378D01*
X184839Y91945D01*
X183941Y91256D01*
X183252Y90358D01*
X182819Y89311D01*
X182804Y89202D01*
X174832D01*
X174553Y89875D01*
X173992Y90606D01*
X173261Y91167D01*
X172410Y91520D01*
X171496Y91640D01*
X170582Y91520D01*
X169731Y91167D01*
X169000Y90606D01*
X168439Y89875D01*
X168086Y89024D01*
X167966Y88110D01*
X168086Y87196D01*
X168439Y86345D01*
X169000Y85614D01*
X169731Y85053D01*
X170582Y84700D01*
X171496Y84580D01*
X172410Y84700D01*
X173261Y85053D01*
X173992Y85614D01*
X174553Y86345D01*
X174897Y87176D01*
X182804D01*
X182819Y87067D01*
X183252Y86020D01*
X183941Y85122D01*
X184839Y84433D01*
X185886Y84000D01*
X187008Y83852D01*
X188130Y84000D01*
X189176Y84433D01*
X190075Y85122D01*
X190764Y86020D01*
X191197Y87067D01*
X191345Y88189D01*
X191197Y89311D01*
X190764Y90358D01*
X190075Y91256D01*
X189176Y91945D01*
X188130Y92378D01*
X187008Y92526D01*
D02*
G37*
G36*
X151496Y81640D02*
X150582Y81520D01*
X149731Y81167D01*
X149000Y80606D01*
X148439Y79875D01*
X148086Y79024D01*
X147966Y78110D01*
X148086Y77196D01*
X148439Y76345D01*
X149000Y75614D01*
X149731Y75053D01*
X150582Y74700D01*
X151496Y74580D01*
X152410Y74700D01*
X153261Y75053D01*
X153992Y75614D01*
X154553Y76345D01*
X154906Y77196D01*
X155026Y78110D01*
X154906Y79024D01*
X154553Y79875D01*
X153992Y80606D01*
X153261Y81167D01*
X152410Y81520D01*
X151496Y81640D01*
D02*
G37*
G36*
Y71640D02*
X150582Y71520D01*
X149731Y71167D01*
X149000Y70606D01*
X148439Y69875D01*
X148086Y69024D01*
X147966Y68110D01*
X148086Y67196D01*
X148439Y66345D01*
X149000Y65614D01*
X149731Y65053D01*
X150582Y64700D01*
X151496Y64580D01*
X152410Y64700D01*
X153261Y65053D01*
X153992Y65614D01*
X154553Y66345D01*
X154906Y67196D01*
X155026Y68110D01*
X154906Y69024D01*
X154553Y69875D01*
X153992Y70606D01*
X153261Y71167D01*
X152410Y71520D01*
X151496Y71640D01*
D02*
G37*
G36*
Y61640D02*
X150582Y61520D01*
X149731Y61167D01*
X149000Y60606D01*
X148439Y59875D01*
X148086Y59024D01*
X147966Y58110D01*
X148086Y57196D01*
X148439Y56345D01*
X149000Y55614D01*
X149731Y55053D01*
X150582Y54700D01*
X151496Y54580D01*
X152410Y54700D01*
X153261Y55053D01*
X153992Y55614D01*
X154553Y56345D01*
X154906Y57196D01*
X155026Y58110D01*
X154906Y59024D01*
X154553Y59875D01*
X153992Y60606D01*
X153261Y61167D01*
X152410Y61520D01*
X151496Y61640D01*
D02*
G37*
G36*
X141496D02*
X140582Y61520D01*
X139731Y61167D01*
X139000Y60606D01*
X138439Y59875D01*
X138086Y59024D01*
X137966Y58110D01*
X138086Y57196D01*
X138439Y56345D01*
X139000Y55614D01*
X139731Y55053D01*
X140582Y54700D01*
X141496Y54580D01*
X142410Y54700D01*
X143261Y55053D01*
X143992Y55614D01*
X144553Y56345D01*
X144906Y57196D01*
X145026Y58110D01*
X144906Y59024D01*
X144553Y59875D01*
X143992Y60606D01*
X143261Y61167D01*
X142410Y61520D01*
X141496Y61640D01*
D02*
G37*
G36*
X151496Y51640D02*
X150582Y51520D01*
X149731Y51167D01*
X149000Y50606D01*
X148439Y49875D01*
X148086Y49024D01*
X147966Y48110D01*
X148086Y47196D01*
X148439Y46345D01*
X149000Y45614D01*
X149731Y45053D01*
X150582Y44700D01*
X151496Y44580D01*
X152410Y44700D01*
X153261Y45053D01*
X153992Y45614D01*
X154553Y46345D01*
X154906Y47196D01*
X155026Y48110D01*
X154906Y49024D01*
X154553Y49875D01*
X153992Y50606D01*
X153261Y51167D01*
X152410Y51520D01*
X151496Y51640D01*
D02*
G37*
G36*
X141496D02*
X140582Y51520D01*
X139731Y51167D01*
X139000Y50606D01*
X138439Y49875D01*
X138086Y49024D01*
X137966Y48110D01*
X138086Y47196D01*
X138439Y46345D01*
X139000Y45614D01*
X139731Y45053D01*
X140582Y44700D01*
X141496Y44580D01*
X142410Y44700D01*
X143261Y45053D01*
X143992Y45614D01*
X144553Y46345D01*
X144906Y47196D01*
X145026Y48110D01*
X144906Y49024D01*
X144553Y49875D01*
X143992Y50606D01*
X143261Y51167D01*
X142410Y51520D01*
X141496Y51640D01*
D02*
G37*
G36*
X141796Y42004D02*
Y38410D01*
X145390D01*
X145296Y39128D01*
X144903Y40077D01*
X144278Y40892D01*
X143463Y41517D01*
X142514Y41910D01*
X141796Y42004D01*
D02*
G37*
G36*
X141196D02*
X140478Y41910D01*
X139529Y41517D01*
X138715Y40892D01*
X138089Y40077D01*
X137696Y39128D01*
X137602Y38410D01*
X141196D01*
Y42004D01*
D02*
G37*
G36*
X151496Y41640D02*
X150582Y41520D01*
X149731Y41167D01*
X149000Y40606D01*
X148439Y39875D01*
X148086Y39024D01*
X147966Y38110D01*
X148086Y37196D01*
X148439Y36345D01*
X149000Y35614D01*
X149731Y35053D01*
X150582Y34700D01*
X151496Y34580D01*
X152410Y34700D01*
X153261Y35053D01*
X153992Y35614D01*
X154553Y36345D01*
X154906Y37196D01*
X155026Y38110D01*
X154906Y39024D01*
X154553Y39875D01*
X153992Y40606D01*
X153261Y41167D01*
X152410Y41520D01*
X151496Y41640D01*
D02*
G37*
G36*
X145390Y37810D02*
X141796D01*
Y34216D01*
X142514Y34310D01*
X143463Y34703D01*
X144278Y35329D01*
X144903Y36143D01*
X145296Y37092D01*
X145390Y37810D01*
D02*
G37*
G36*
X141196D02*
X137602D01*
X137696Y37092D01*
X138089Y36143D01*
X138715Y35329D01*
X139529Y34703D01*
X140478Y34310D01*
X141196Y34216D01*
Y37810D01*
D02*
G37*
G36*
X124709Y20055D02*
Y15654D01*
X129110D01*
X128988Y16581D01*
X128515Y17724D01*
X127761Y18706D01*
X126779Y19459D01*
X125636Y19933D01*
X124709Y20055D01*
D02*
G37*
G36*
X124109D02*
X123182Y19933D01*
X122039Y19459D01*
X121057Y18706D01*
X120303Y17724D01*
X119830Y16581D01*
X119708Y15654D01*
X124109D01*
Y20055D01*
D02*
G37*
G36*
X164409Y19691D02*
X163286Y19543D01*
X162241Y19110D01*
X161342Y18421D01*
X160653Y17523D01*
X160220Y16477D01*
X160072Y15354D01*
X160220Y14232D01*
X160653Y13185D01*
X161342Y12287D01*
X162241Y11598D01*
X163286Y11165D01*
X164409Y11017D01*
X165532Y11165D01*
X166577Y11598D01*
X167476Y12287D01*
X168165Y13185D01*
X168598Y14232D01*
X168746Y15354D01*
X168598Y16477D01*
X168165Y17523D01*
X167476Y18421D01*
X166577Y19110D01*
X165532Y19543D01*
X164409Y19691D01*
D02*
G37*
G36*
X154409D02*
X153287Y19543D01*
X152241Y19110D01*
X151342Y18421D01*
X150653Y17523D01*
X150220Y16477D01*
X150072Y15354D01*
X150220Y14232D01*
X150653Y13185D01*
X151342Y12287D01*
X152241Y11598D01*
X153287Y11165D01*
X154409Y11017D01*
X155532Y11165D01*
X156578Y11598D01*
X157476Y12287D01*
X158165Y13185D01*
X158598Y14232D01*
X158746Y15354D01*
X158598Y16477D01*
X158165Y17523D01*
X157476Y18421D01*
X156578Y19110D01*
X155532Y19543D01*
X154409Y19691D01*
D02*
G37*
G36*
X144409D02*
X143287Y19543D01*
X142241Y19110D01*
X141342Y18421D01*
X140653Y17523D01*
X140220Y16477D01*
X140072Y15354D01*
X140220Y14232D01*
X140653Y13185D01*
X141342Y12287D01*
X142241Y11598D01*
X143287Y11165D01*
X144409Y11017D01*
X145531Y11165D01*
X146578Y11598D01*
X147476Y12287D01*
X148165Y13185D01*
X148598Y14232D01*
X148746Y15354D01*
X148598Y16477D01*
X148165Y17523D01*
X147476Y18421D01*
X146578Y19110D01*
X145531Y19543D01*
X144409Y19691D01*
D02*
G37*
G36*
X134409D02*
X133286Y19543D01*
X132240Y19110D01*
X131342Y18421D01*
X130653Y17523D01*
X130220Y16477D01*
X130072Y15354D01*
X130220Y14232D01*
X130653Y13185D01*
X131342Y12287D01*
X132240Y11598D01*
X133286Y11165D01*
X134409Y11017D01*
X135531Y11165D01*
X136577Y11598D01*
X137476Y12287D01*
X138165Y13185D01*
X138598Y14232D01*
X138746Y15354D01*
X138598Y16477D01*
X138165Y17523D01*
X137476Y18421D01*
X136577Y19110D01*
X135531Y19543D01*
X134409Y19691D01*
D02*
G37*
G36*
X129110Y15054D02*
X124709D01*
Y10653D01*
X125636Y10775D01*
X126779Y11249D01*
X127761Y12002D01*
X128515Y12984D01*
X128988Y14127D01*
X129110Y15054D01*
D02*
G37*
G36*
X124109D02*
X119708D01*
X119830Y14127D01*
X120303Y12984D01*
X121057Y12002D01*
X122039Y11249D01*
X123182Y10775D01*
X124109Y10653D01*
Y15054D01*
D02*
G37*
G36*
X59662Y139070D02*
X56363D01*
Y135811D01*
X59662D01*
Y139070D01*
D02*
G37*
%LPD*%
D24*
X162598Y186850D02*
X162550Y187831D01*
X162406Y188801D01*
X162168Y189753D01*
X161837Y190677D01*
X161418Y191564D01*
X160913Y192406D01*
X160328Y193194D01*
X159669Y193921D01*
X158942Y194580D01*
X158154Y195165D01*
X157312Y195670D01*
X156425Y196089D01*
X155501Y196420D01*
X154549Y196658D01*
X153579Y196802D01*
X152598Y196850D01*
X50336Y190739D02*
X50171Y190718D01*
X49266Y190420D01*
X48408Y190007D01*
X47612Y189483D01*
X46891Y188860D01*
X46259Y188148D01*
X45726Y187358D01*
X45302Y186505D01*
X44993Y185604D01*
X44806Y184670D01*
X44743Y183719D01*
X40022Y163779D02*
X41072Y163897D01*
X42070Y164246D01*
X42965Y164809D01*
X43713Y165557D01*
X44276Y166452D01*
X44625Y167449D01*
X44743Y168500D01*
X45924Y192126D02*
X45045Y191805D01*
X44242Y191325D01*
X43542Y190705D01*
X42971Y189964D01*
X42548Y189130D01*
X42288Y188231D01*
X42200Y187300D01*
X48397Y155703D02*
X48397Y155703D01*
X36659Y177559D02*
X37555Y177737D01*
X38314Y178245D01*
X38822Y179004D01*
X39000Y179900D01*
X39490Y175590D02*
X40204Y175886D01*
X40500Y176600D01*
X48803Y58471D02*
X48803Y58471D01*
X78943Y83203D02*
X78943Y83203D01*
X78740Y192126D02*
X86047Y184820D01*
X75310Y188946D02*
X75827Y188429D01*
Y183858D02*
Y188429D01*
X73517Y190739D02*
X75310Y188946D01*
X105420Y195276D02*
X105827Y194869D01*
X39764Y195276D02*
X105420D01*
X105827Y182166D02*
Y194869D01*
X95420Y193701D02*
X95827Y193294D01*
X40906Y193701D02*
X95420D01*
X95827Y182899D02*
Y193294D01*
X45924Y192126D02*
X78740D01*
X72073Y190739D02*
X73517D01*
X50336D02*
X72073D01*
X59842Y175197D02*
Y177559D01*
X62599Y181496D02*
X63088D01*
X63779Y176772D02*
Y180804D01*
X56496Y181496D02*
X62599D01*
X63088D02*
X63779Y180804D01*
X57481Y177559D02*
X59842D01*
X56496D02*
X57481D01*
X63779Y176772D02*
X101956D01*
X102362Y158268D02*
Y176365D01*
X101956Y176772D02*
X102362Y176365D01*
X100381Y175197D02*
X100787Y174791D01*
Y153150D02*
Y174791D01*
X59842Y175197D02*
X100381D01*
X162598Y168504D02*
Y186850D01*
X129843Y196850D02*
X152598D01*
X38802Y165748D02*
X42200Y169146D01*
Y171548D02*
Y181300D01*
X34843Y165748D02*
X38802D01*
X42200Y169146D02*
Y171548D01*
X44743Y181339D02*
Y183719D01*
Y168500D02*
Y181339D01*
X38979Y163779D02*
X40022D01*
X40500Y176600D02*
Y193294D01*
X40906Y193701D01*
X39000Y188964D02*
Y194512D01*
X39764Y195276D01*
X36050Y196850D02*
X129843D01*
X43031Y151969D02*
X45600Y149400D01*
X39794Y146063D02*
X40500Y145357D01*
X40668Y148032D02*
X42200Y146500D01*
X41500Y150000D02*
X43600Y147900D01*
X51900Y78752D02*
Y159437D01*
X50200Y68516D02*
Y157468D01*
X51494Y159843D02*
X51900Y159437D01*
X38002Y144094D02*
X38900Y143196D01*
X36614Y144094D02*
X38002D01*
X34843Y148032D02*
X40668D01*
X35800Y146063D02*
X39794D01*
X35800Y150000D02*
X41500D01*
X49794Y157874D02*
X50200Y157468D01*
X34843Y151969D02*
X43031D01*
X34843Y153937D02*
X46794D01*
X36100Y155906D02*
X48194D01*
X46794Y153937D02*
X47213Y153518D01*
X48194Y155906D02*
X48397Y155703D01*
X48397Y155703D02*
X48600Y155500D01*
X34843Y157874D02*
X49794D01*
X48600Y58674D02*
Y155500D01*
X47213Y48882D02*
Y153518D01*
X9449Y104331D02*
Y111811D01*
X27165D01*
X19685Y104331D02*
Y109843D01*
X28740D01*
X27165Y111811D02*
Y181496D01*
X28740Y109843D02*
Y179528D01*
X30315Y74016D02*
Y161811D01*
X28740Y179528D02*
X33071D01*
X30315Y161811D02*
X33071D01*
X27165Y181496D02*
X33071D01*
X34843Y159843D02*
X51494D01*
X38900Y44698D02*
Y143196D01*
X40500Y45061D02*
Y145357D01*
X42200Y45323D02*
Y146500D01*
X43600Y45885D02*
Y147900D01*
X45600Y45847D02*
Y149400D01*
X34843Y163779D02*
X38979D01*
X34843Y177559D02*
X36659D01*
X34843Y175590D02*
X39490D01*
X39000Y179900D02*
Y188964D01*
X42200Y181300D02*
Y187300D01*
X125864Y82797D02*
X140331Y68331D01*
X163200Y24000D02*
X166500Y27300D01*
X160400Y26500D02*
X162841Y28941D01*
X162877Y29161D01*
X159830Y29000D02*
X160236Y29406D01*
X162877Y29161D02*
X163611Y33620D01*
X157074Y31900D02*
X157480Y32306D01*
X166500Y27300D02*
Y43214D01*
X173622Y38189D02*
X184646D01*
X163611Y33620D02*
Y50619D01*
X160236Y29406D02*
Y56693D01*
X166600Y43214D02*
X171496Y48110D01*
X173622Y48032D02*
X184646D01*
X157480Y32306D02*
Y64173D01*
X163611Y50619D02*
X169685Y56693D01*
X160236D02*
X170472Y66929D01*
X157480Y64173D02*
X170079Y76772D01*
X155512Y122835D02*
X169685Y108661D01*
X140551Y112992D02*
X151575Y101969D01*
X88189Y112992D02*
X140551D01*
X94488Y133071D02*
Y167717D01*
X97638Y142913D02*
Y171654D01*
X173622Y88189D02*
X184646D01*
X173622Y98425D02*
X184646D01*
X182677Y123228D02*
X185039Y125591D01*
X155118Y153150D02*
X169291Y138976D01*
X140551Y138189D02*
X153543D01*
X174016D02*
X183465D01*
X168504Y123228D02*
X182677D01*
X91339Y122835D02*
X155512D01*
X153543Y138189D02*
X168504Y123228D01*
X94488Y133071D02*
X155118D01*
X97638Y142913D02*
X155118D01*
X125661Y83000D02*
X125864Y82797D01*
X125984Y92913D02*
X139764Y79134D01*
X137008Y103150D02*
X141732Y98425D01*
X151575Y89764D02*
Y101969D01*
X141732Y90157D02*
Y98425D01*
X155118Y133071D02*
X169685Y118504D01*
X155118Y142913D02*
X169291Y128740D01*
X100787Y153150D02*
X155118D01*
X11811Y74016D02*
X30315D01*
X47213Y47270D02*
Y48882D01*
Y47270D02*
X47699Y46783D01*
X40500Y45061D02*
X56435Y29125D01*
X48600Y58674D02*
X48803Y58471D01*
X48803Y58471D02*
X49006Y58268D01*
X38900Y44698D02*
X59598Y24000D01*
X45600Y45847D02*
X53652Y37795D01*
X42200Y45323D02*
X58319Y29203D01*
X50200Y68516D02*
X50606Y68110D01*
X43600Y45885D02*
X57585Y31900D01*
X56435Y29125D02*
X59061Y26500D01*
X58319Y29203D02*
X58523Y29000D01*
X47699Y46783D02*
X108200D01*
X49006Y58268D02*
X111496D01*
X50606Y68110D02*
X111496D01*
X53652Y37795D02*
X109449D01*
X57585Y31900D02*
X157074D01*
X108200Y46783D02*
X109449Y48032D01*
X58523Y29000D02*
X159830D01*
X59061Y26500D02*
X160400D01*
X59598Y24000D02*
X163200D01*
X58268Y155906D02*
X85039D01*
X58268Y159843D02*
X88189D01*
X58268Y161811D02*
X89764D01*
X58268Y163780D02*
X91339D01*
X58661Y165748D02*
X92913D01*
X58268Y169685D02*
X96063D01*
X102362Y158268D02*
X109449D01*
X58268Y173622D02*
X99213D01*
Y148032D02*
Y173622D01*
X58268Y167717D02*
X94488D01*
X58268Y171654D02*
X97638D01*
X80315Y87795D02*
Y150000D01*
X78740Y83406D02*
Y148032D01*
X72835Y95669D02*
Y146063D01*
X66929Y89370D02*
Y144094D01*
X103150Y148032D02*
X109449D01*
X89764Y118110D02*
X109449D01*
X99213Y148032D02*
X102756D01*
X92913Y128346D02*
X109449D01*
X96063Y138189D02*
X109449D01*
X102756Y148032D02*
X103150D01*
X86614Y107874D02*
X109449D01*
X58268Y148032D02*
X78740D01*
X58661Y153937D02*
X83465D01*
X58661Y146063D02*
X72835D01*
X58268Y150000D02*
X80315D01*
X58268Y151969D02*
X81890D01*
X58661Y144094D02*
X66929D01*
X81890Y92913D02*
Y151969D01*
X83465Y98032D02*
Y153937D01*
X85039Y103150D02*
Y155906D01*
X86614Y107874D02*
Y157874D01*
X88189Y112992D02*
Y159843D01*
X89764Y118110D02*
Y161811D01*
X91339Y122835D02*
Y163780D01*
X92913Y128346D02*
Y165748D01*
X96063Y138189D02*
Y169685D01*
X51900Y78752D02*
X111496D01*
X78740Y83406D02*
X78943Y83203D01*
X78943Y83203D02*
X79146Y83000D01*
X80315Y87795D02*
X109449D01*
X83465Y98032D02*
X109449D01*
X79146Y83000D02*
X125661D01*
X81890Y92913D02*
X125984D01*
X85039Y103150D02*
X137008D01*
X58268Y157874D02*
X86614D01*
D25*
X34843Y144094D02*
D03*
X56496D02*
D03*
X34843Y146063D02*
D03*
X56496D02*
D03*
X34843Y148031D02*
D03*
X56496D02*
D03*
X34843Y150000D02*
D03*
X56496D02*
D03*
X34843Y151968D02*
D03*
X56496D02*
D03*
X34843Y153937D02*
D03*
X56496D02*
D03*
X34843Y155905D02*
D03*
X56496D02*
D03*
X34843Y157874D02*
D03*
X56496D02*
D03*
X34843Y159842D02*
D03*
X56496D02*
D03*
X34843Y161811D02*
D03*
X56496D02*
D03*
X34843Y163779D02*
D03*
X56496D02*
D03*
X34843Y165748D02*
D03*
X56496D02*
D03*
X34843Y167716D02*
D03*
X56496D02*
D03*
X34843Y169685D02*
D03*
X56496D02*
D03*
X34843Y171653D02*
D03*
X56496D02*
D03*
X34843Y173622D02*
D03*
X56496D02*
D03*
X34843Y175590D02*
D03*
X56496D02*
D03*
X34843Y177559D02*
D03*
X56496D02*
D03*
X34843Y179527D02*
D03*
X56496D02*
D03*
X34843Y181496D02*
D03*
X56496D02*
D03*
D26*
X35276Y186220D02*
D03*
X56063D02*
D03*
X35276Y139370D02*
D03*
X56063D02*
D03*
D27*
X162596Y168164D02*
X171496Y168110D01*
X9449Y167778D02*
X19449Y167717D01*
X19483Y173302D01*
X174016Y148032D02*
X187008Y147953D01*
X174016Y168032D02*
X187008Y167953D01*
D28*
X23500Y184300D02*
X36050Y196850D01*
X23500Y176900D02*
Y184300D01*
X19900Y173300D02*
X23500Y176900D01*
D29*
X105827Y183858D02*
D03*
X95827D02*
D03*
X85827D02*
D03*
X75827D02*
D03*
X124409Y15354D02*
D03*
X134409D02*
D03*
X144409D02*
D03*
X154409D02*
D03*
X164409D02*
D03*
X9449Y74016D02*
D03*
Y102362D02*
D03*
X19449D02*
D03*
X9449Y167717D02*
D03*
X19449D02*
D03*
X187008Y38189D02*
D03*
Y48189D02*
D03*
Y88189D02*
D03*
Y98189D02*
D03*
Y127953D02*
D03*
Y137953D02*
D03*
Y147953D02*
D03*
Y157953D02*
D03*
Y167953D02*
D03*
D30*
X12992Y12992D02*
D03*
Y183465D02*
D03*
X183465Y12992D02*
D03*
Y183465D02*
D03*
D31*
X111496Y148110D02*
D03*
Y138110D02*
D03*
Y128110D02*
D03*
Y118110D02*
D03*
Y108110D02*
D03*
Y98110D02*
D03*
Y88110D02*
D03*
Y78110D02*
D03*
Y68110D02*
D03*
Y58110D02*
D03*
Y48110D02*
D03*
Y38110D02*
D03*
X171496D02*
D03*
Y48110D02*
D03*
Y58110D02*
D03*
Y68110D02*
D03*
Y78110D02*
D03*
Y88110D02*
D03*
Y98110D02*
D03*
Y108110D02*
D03*
Y118110D02*
D03*
Y128110D02*
D03*
Y138110D02*
D03*
X111496Y158110D02*
D03*
X171496Y148110D02*
D03*
Y168110D02*
D03*
X151496Y48110D02*
D03*
Y58110D02*
D03*
Y68110D02*
D03*
Y78110D02*
D03*
Y88110D02*
D03*
X141496Y48110D02*
D03*
Y58110D02*
D03*
Y68110D02*
D03*
Y78110D02*
D03*
Y88110D02*
D03*
X151496Y38110D02*
D03*
X171496Y158110D02*
D03*
X111496Y168110D02*
D03*
X141496Y38110D02*
D03*
D32*
X39370Y172441D02*
D03*
D33*
X22000Y5500D02*
D03*
X6400Y24500D02*
D03*
X125800Y58200D02*
D03*
X23700Y190100D02*
D03*
X56299Y88189D02*
D03*
X66929Y88583D02*
D03*
X72835Y94488D02*
D03*
X189700Y23900D02*
D03*
X174700Y5600D02*
D03*
X171700Y190000D02*
D03*
X139370Y138189D02*
D03*
M02*
